<svg xmlns="http://www.w3.org/2000/svg"><defs><font id="prefix__iconfont" horiz-adv-x="1024"><font-face ascent="896" descent="-128" font-family="iconfont" font-weight="400" units-per-em="1024"/><glyph d="M667.733 32H170.667C164.267 32 160 36.267 160 42.667v682.666c0 6.4 4.267 10.667 10.667 10.667H480V576c0-40.533 34.133-74.667 74.667-74.667h160v-38.4c0-17.066 14.933-32 32-32s32 14.934 32 32v134.4c0 8.534-4.267 17.067-8.534 23.467L599.467 791.467c-6.4 6.4-14.934 8.533-23.467 8.533H170.667C130.133 800 96 765.867 96 725.333V42.667C96 2.133 130.133-32 170.667-32h497.066c17.067 0 32 14.933 32 32s-14.933 32-32 32zm46.934 550.4v-17.067h-160c-6.4 0-10.667 4.267-10.667 10.667v160h19.2l151.467-153.6zm138.666-283.733H599.467l51.2 51.2c12.8 12.8 12.8 32 0 44.8-12.8 12.8-32 12.8-44.8 0L499.2 288c-12.8-12.8-12.8-32 0-44.8l106.667-106.667c6.4-6.4 14.933-8.533 23.466-8.533s17.067 2.133 23.467 8.533c12.8 12.8 12.8 32 0 44.8l-53.333 53.334h253.866c17.067 0 32 14.933 32 32s-14.933 32-32 32z" glyph-name="import" horiz-adv-x="1024" unicode=""/><glyph d="M819.2 800H204.8C145.067 800 96 750.933 96 691.2V74.667c0-59.734 49.067-108.8 108.8-108.8h616.533c59.734 0 108.8 49.066 108.8 108.8V691.2C928 750.933 878.933 800 819.2 800zM864 76.8c0-23.467-19.2-44.8-44.8-44.8H204.8C181.333 32 160 51.2 160 76.8v614.4c0 23.467 19.2 44.8 44.8 44.8h616.533c23.467 0 44.8-19.2 44.8-44.8V76.8zM298.667 373.333h128c29.866 0 53.333 23.467 53.333 53.334v128C480 584.533 456.533 608 426.667 608h-128c-29.867 0-53.334-23.467-53.334-53.333v-128c0-29.867 23.467-53.334 53.334-53.334zM309.333 544H416V437.333H309.333V544zm437.334-85.333H576c-17.067 0-32-14.934-32-32s14.933-32 32-32h170.667c17.066 0 32 14.933 32 32s-14.934 32-32 32zm0-192H277.333c-17.066 0-32-14.934-32-32s14.934-32 32-32h469.334c17.066 0 32 14.933 32 32s-14.934 32-32 32z" glyph-name="image-text" horiz-adv-x="1024" unicode=""/><glyph d="M512 821.333C270.933 821.333 74.667 625.067 74.667 384S270.933-53.333 512-53.333 949.333 142.933 949.333 384 753.067 821.333 512 821.333zm0-810.666C307.2 10.667 138.667 179.2 138.667 384S307.2 757.333 512 757.333 885.333 588.8 885.333 384 716.8 10.667 512 10.667zm-64 448c17.067 0 32 14.933 32 32v42.666c0 17.067-14.933 32-32 32s-32-14.933-32-32v-42.666c0-17.067 14.933-32 32-32zm128 0c17.067 0 32 14.933 32 32v42.666c0 17.067-14.933 32-32 32s-32-14.933-32-32v-42.666c0-17.067 14.933-32 32-32zm-256 0c17.067 0 32 14.933 32 32v42.666c0 17.067-14.933 32-32 32s-32-14.933-32-32v-42.666c0-17.067 14.933-32 32-32zm384 106.666c-17.067 0-32-14.933-32-32v-42.666c0-17.067 14.933-32 32-32s32 14.933 32 32v42.666c0 17.067-14.933 32-32 32zm-256-256c17.067 0 32 14.934 32 32V384c0 17.067-14.933 32-32 32s-32-14.933-32-32v-42.667c0-17.066 14.933-32 32-32zm128 0c17.067 0 32 14.934 32 32V384c0 17.067-14.933 32-32 32s-32-14.933-32-32v-42.667c0-17.066 14.933-32 32-32zm-224 32V384c0 17.067-14.933 32-32 32s-32-14.933-32-32v-42.667c0-17.066 14.933-32 32-32s32 14.934 32 32zM704 416c-17.067 0-32-14.933-32-32v-42.667c0-17.066 14.933-32 32-32s32 14.934 32 32V384c0 17.067-14.933 32-32 32zm-21.333-170.667H341.333c-17.066 0-32-14.933-32-32s14.934-32 32-32h341.334c17.066 0 32 14.934 32 32s-14.934 32-32 32z" glyph-name="keyboard-26" horiz-adv-x="1024" unicode=""/><glyph d="M512 821.333C270.933 821.333 74.667 625.067 74.667 384S270.933-53.333 512-53.333 949.333 142.933 949.333 384 753.067 821.333 512 821.333zm0-810.666C307.2 10.667 138.667 179.2 138.667 384S307.2 757.333 512 757.333 885.333 588.8 885.333 384 716.8 10.667 512 10.667zm0 576c-17.067 0-32-14.934-32-32V512c0-17.067 14.933-32 32-32s32 14.933 32 32v42.667c0 17.066-14.933 32-32 32zm0-149.334c-17.067 0-32-14.933-32-32v-42.666c0-17.067 14.933-32 32-32s32 14.933 32 32v42.666c0 17.067-14.933 32-32 32zM512 288c-17.067 0-32-14.933-32-32v-42.667c0-17.066 14.933-32 32-32s32 14.934 32 32V256c0 17.067-14.933 32-32 32zm138.667 298.667c-17.067 0-32-14.934-32-32V512c0-17.067 14.933-32 32-32s32 14.933 32 32v42.667c0 17.066-14.934 32-32 32zm0-149.334c-17.067 0-32-14.933-32-32v-42.666c0-17.067 14.933-32 32-32s32 14.933 32 32v42.666c0 17.067-14.934 32-32 32zm0-149.333c-17.067 0-32-14.933-32-32v-42.667c0-17.066 14.933-32 32-32s32 14.934 32 32V256c0 17.067-14.934 32-32 32zM373.333 586.667c-17.066 0-32-14.934-32-32V512c0-17.067 14.934-32 32-32s32 14.933 32 32v42.667c0 17.066-14.933 32-32 32zm0-149.334c-17.066 0-32-14.933-32-32v-42.666c0-17.067 14.934-32 32-32s32 14.933 32 32v42.666c0 17.067-14.933 32-32 32zm0-149.333c-17.066 0-32-14.933-32-32v-42.667c0-17.066 14.934-32 32-32s32 14.934 32 32V256c0 17.067-14.933 32-32 32z" glyph-name="keyboard-9" horiz-adv-x="1024" unicode=""/><glyph d="M861.867 731.733c-87.467 87.467-230.4 89.6-320 2.134L473.6 665.6c-12.8-12.8-12.8-32 0-44.8s32-12.8 44.8 0l68.267 68.267c64 61.866 166.4 61.866 230.4-2.134s64-168.533 2.133-232.533L701.867 334.933c-34.134-34.133-81.067-51.2-128-49.066C526.933 290.133 482.133 313.6 454.4 352c-10.667 14.933-29.867 17.067-44.8 6.4-14.933-10.667-17.067-29.867-6.4-44.8 40.533-53.333 100.267-87.467 166.4-91.733h17.067c59.733 0 119.466 23.466 162.133 68.266L866.133 409.6c83.2 89.6 83.2 234.667-4.266 322.133zM505.6 145.067 439.467 76.8c-64-61.867-166.4-61.867-230.4 2.133s-64 168.534-2.134 232.534l117.334 119.466c34.133 34.134 81.066 51.2 128 49.067 46.933-4.267 91.733-27.733 119.466-66.133 10.667-14.934 29.867-17.067 44.8-6.4 14.934 10.666 17.067 29.866 6.4 44.8C582.4 505.6 522.667 539.733 456.533 544c-66.133 4.267-130.133-19.2-177.066-66.133L162.133 358.4C76.8 268.8 76.8 123.733 164.267 36.267c44.8-44.8 102.4-66.134 162.133-66.134 57.6 0 115.2 21.334 160 64l66.133 68.267c12.8 12.8 12.8 32 0 44.8-14.933 10.667-34.133 10.667-46.933-2.133z" glyph-name="link" horiz-adv-x="1024" unicode=""/><glyph d="M853.333 800H170.667C130.133 800 96 765.867 96 725.333V42.667C96 2.133 130.133-32 170.667-32h682.666C893.867-32 928 2.133 928 42.667v682.666C928 765.867 893.867 800 853.333 800zm-682.666-64h682.666c6.4 0 10.667-4.267 10.667-10.667V512H160v213.333c0 6.4 4.267 10.667 10.667 10.667zM160 42.667V448h181.333V32H170.667C164.267 32 160 36.267 160 42.667zM853.333 32h-448v416H864V42.667c0-6.4-4.267-10.667-10.667-10.667z" glyph-name="layout" horiz-adv-x="1024" unicode=""/><glyph d="M313.6 537.6H177.067c-17.067 0-32-14.933-32-32s14.933-32 32-32H390.4c4.267 0 8.533 0 10.667 2.133C409.6 480 416 484.267 418.133 492.8c2.134 4.267 2.134 8.533 2.134 10.667V716.8c0 17.067-14.934 32-32 32s-32-14.933-32-32V580.267L172.8 770.133c-12.8 12.8-32 12.8-44.8 0-12.8-12.8-12.8-32 0-44.8L313.6 537.6zm381.867-292.267H832c17.067 0 32 14.934 32 32s-14.933 32-32 32H618.667c-4.267 0-8.534 0-10.667-2.133-8.533-4.267-14.933-8.533-17.067-17.067-2.133-4.266-2.133-8.533-2.133-10.666V66.133c0-17.066 14.933-32 32-32s32 14.934 32 32v136.534L853.333 2.133c6.4-6.4 14.934-8.533 23.467-8.533s17.067 2.133 23.467 8.533c12.8 12.8 12.8 32 0 44.8l-204.8 198.4zm-260.267 44.8c-4.267 8.534-8.533 14.934-17.067 17.067-4.266 2.133-8.533 2.133-10.666 2.133H192c-17.067 0-32-14.933-32-32s14.933-32 32-32h136.533L128 44.8c-12.8-12.8-12.8-32 0-44.8 6.4-6.4 14.933-8.533 23.467-8.533S168.533-6.4 174.933 0l200.534 200.533V64c0-17.067 14.933-32 32-32s32 14.933 32 32v213.333c-2.134 4.267-2.134 8.534-4.267 12.8zM603.733 492.8c4.267-8.533 8.534-14.933 17.067-17.067 4.267-2.133 8.533-2.133 10.667-2.133H844.8c17.067 0 32 14.933 32 32s-14.933 32-32 32H708.267L896 725.333c12.8 12.8 12.8 32 0 44.8-12.8 12.8-32 12.8-44.8 0L663.467 582.4v136.533c0 17.067-14.934 32-32 32s-32-14.933-32-32V505.6c2.133-4.267 2.133-8.533 4.266-12.8z" glyph-name="fullscreen-shrink" horiz-adv-x="1024" unicode=""/><glyph d="m110.933 544 384-192c4.267-2.133 10.667-4.267 17.067-4.267s10.667 2.134 17.067 4.267l384 192c12.8 6.4 19.2 19.2 19.2 32s-8.534 25.6-19.2 32l-384 192c-10.667 4.267-21.334 4.267-32 0l-384-192c-12.8-6.4-19.2-19.2-19.2-32s6.4-25.6 17.066-32zM512 727.467 814.933 576 512 424.533 209.067 576 512 727.467zM878.933 224 512 40.533 145.067 224c-17.067 8.533-38.4 2.133-49.067-17.067-8.533-17.066-2.133-38.4 17.067-49.066l384-192c4.266-2.134 10.666-4.267 17.066-4.267s10.667 2.133 17.067 4.267l384 192c17.067 8.533 25.6 29.866 17.067 49.066-12.8 19.2-34.134 25.6-53.334 17.067zm0 192L512 232.533 145.067 416c-17.067 8.533-38.4 2.133-49.067-17.067-8.533-17.066-2.133-38.4 17.067-49.066l384-192c4.266-2.134 10.666-4.267 17.066-4.267s10.667 2.133 17.067 4.267l384 192c17.067 8.533 25.6 29.866 17.067 49.066-12.8 19.2-34.134 25.6-53.334 17.067z" glyph-name="layers" horiz-adv-x="1024" unicode=""/><glyph d="M785.067 480H723.2v121.6c0 108.8-91.733 198.4-202.667 198.4s-202.666-89.6-202.666-198.4V480h-78.934c-55.466 0-100.266-44.8-100.266-100.267V68.267C138.667 12.8 183.467-32 238.933-32h546.134c55.466 0 100.266 44.8 100.266 100.267v311.466c0 55.467-44.8 100.267-100.266 100.267zm-403.2 121.6c0 74.667 61.866 134.4 138.666 134.4S659.2 676.267 659.2 601.6V480H381.867v121.6zM821.333 68.267c0-19.2-17.066-36.267-36.266-36.267H238.933c-19.2 0-36.266 17.067-36.266 36.267v311.466c0 19.2 17.066 36.267 36.266 36.267h546.134c19.2 0 36.266-17.067 36.266-36.267V68.267zM512 352c-17.067 0-32-14.933-32-32V213.333c0-17.066 14.933-32 32-32s32 14.934 32 32V320c0 17.067-14.933 32-32 32z" glyph-name="lock" horiz-adv-x="1024" unicode=""/><glyph d="M149.333 501.333c17.067 0 32 14.934 32 32v136.534l187.734-187.734c6.4-6.4 14.933-8.533 23.466-8.533s17.067 2.133 23.467 8.533c12.8 12.8 12.8 32 0 44.8L228.267 714.667h134.4c17.066 0 32 14.933 32 32s-14.934 32-32 32H149.333c-4.266 0-8.533 0-10.666-2.134-8.534-4.266-14.934-10.666-19.2-17.066-2.134-4.267-2.134-8.534-2.134-12.8V533.333c0-17.066 14.934-32 32-32zm725.334-234.666c-17.067 0-32-14.934-32-32V98.133L642.133 298.667c-12.8 12.8-32 12.8-44.8 0s-12.8-32 0-44.8L797.867 53.333H661.333c-17.066 0-32-14.933-32-32s14.934-32 32-32h213.334c4.266 0 8.533 0 10.666 2.134C893.867-4.267 900.267 0 902.4 8.533c2.133 4.267 2.133 8.534 2.133 10.667v215.467c2.134 17.066-12.8 32-29.866 32zm-492.8 34.133L181.333 100.267v134.4c0 17.066-14.933 32-32 32s-32-14.934-32-32V21.333c0-4.266 0-8.533 2.134-10.666C123.733 2.133 128-4.267 136.533-6.4c4.267-2.133 8.534-2.133 10.667-2.133h213.333c17.067 0 32 14.933 32 32s-14.933 32-32 32H224L424.533 256c12.8 12.8 12.8 32 0 44.8s-29.866 10.667-42.666 0zm522.666 456.533c0 2.134 0 2.134 0 0-4.266 8.534-10.666 14.934-17.066 17.067-4.267 2.133-8.534 2.133-10.667 2.133H661.333c-17.066 0-32-14.933-32-32s14.934-32 32-32h136.534L610.133 524.8c-12.8-12.8-12.8-32 0-44.8 6.4-6.4 14.934-8.533 23.467-8.533s17.067 2.133 23.467 8.533L844.8 667.733v-134.4c0-17.066 14.933-32 32-32s32 14.934 32 32v213.334c-2.133 4.266-2.133 8.533-4.267 10.666z" glyph-name="fullscreen-expand" horiz-adv-x="1024" unicode=""/><glyph d="M512 821.333c-194.133 0-352-160-352-354.133 0-264.533 320-484.267 334.933-492.8C501.333-29.867 505.6-32 512-32s12.8 2.133 17.067 6.4C541.867-17.067 864 202.667 864 467.2c0 194.133-157.867 354.133-352 354.133zM512 38.4c-66.133 49.067-288 228.267-288 426.667 0 160 130.133 290.133 288 290.133s288-130.133 288-290.133C800 268.8 578.133 87.467 512 38.4zm0 548.267c-76.8 0-138.667-61.867-138.667-138.667S435.2 309.333 512 309.333 650.667 371.2 650.667 448 588.8 586.667 512 586.667zm0-213.334c-40.533 0-74.667 34.134-74.667 74.667s34.134 74.667 74.667 74.667 74.667-34.134 74.667-74.667-34.134-74.667-74.667-74.667z" glyph-name="map" horiz-adv-x="1024" unicode=""/><glyph d="M512-53.333C270.933-53.333 74.667 142.933 74.667 384S270.933 821.333 512 821.333 949.333 625.067 949.333 384 753.067-53.333 512-53.333zm0 810.666C307.2 757.333 138.667 588.8 138.667 384S307.2 10.667 512 10.667 885.333 179.2 885.333 384 716.8 757.333 512 757.333zM362.667 384C339.2 384 320 403.2 320 426.667v64c0 23.466 19.2 42.666 42.667 42.666s42.666-19.2 42.666-42.666v-64c0-23.467-19.2-42.667-42.666-42.667zm298.666 0c-23.466 0-42.666 19.2-42.666 42.667v64c0 23.466 19.2 42.666 42.666 42.666S704 514.133 704 490.667v-64C704 403.2 684.8 384 661.333 384zm38.4-202.667H324.267c-17.067 0-32 14.934-32 32s14.933 32 32 32H697.6c17.067 0 32-14.933 32-32s-12.8-32-29.867-32z" glyph-name="meh" horiz-adv-x="1024" unicode=""/><glyph d="M106.667 682.667a64 64 0 1 1 128 0 64 64 0 1 1-128 0Zm0-298.667a64 64 0 1 1 128 0 64 64 0 1 1-128 0Zm0-298.667a64 64 0 1 1 128 0 64 64 0 1 1-128 0Zm789.333 32H362.667c-17.067 0-32-14.933-32-32s14.933-32 32-32H896c17.067 0 32 14.934 32 32s-14.933 32-32 32zM362.667 650.667H896c17.067 0 32 14.933 32 32s-14.933 32-32 32H362.667c-17.067 0-32-14.934-32-32s14.933-32 32-32zM896 416H362.667c-17.067 0-32-14.933-32-32s14.933-32 32-32H896c17.067 0 32 14.933 32 32s-14.933 32-32 32z" glyph-name="menu" horiz-adv-x="1024" unicode=""/><glyph d="M512 821.333c-17.067 0-32-14.933-32-32V640c0-17.067 14.933-32 32-32s32 14.933 32 32v149.333c0 17.067-14.933 32-32 32zm181.333-288c8.534 0 17.067 2.134 23.467 8.534L821.333 646.4c12.8 12.8 12.8 32 0 44.8-12.8 12.8-32 12.8-44.8 0L672 586.667c-12.8-12.8-12.8-32 0-44.8 4.267-6.4 12.8-8.534 21.333-8.534zm224-117.333H768c-17.067 0-32-14.933-32-32s14.933-32 32-32h149.333c17.067 0 32 14.933 32 32s-14.933 32-32 32zM714.667 226.133c-12.8 12.8-32 12.8-44.8 0s-12.8-32 0-44.8L774.4 76.8c6.4-6.4 14.933-8.533 23.467-8.533s17.066 2.133 23.466 8.533c12.8 12.8 12.8 32 0 44.8L714.667 226.133zM512 160c-17.067 0-32-14.933-32-32V-21.333c0-17.067 14.933-32 32-32s32 14.933 32 32V128c0 17.067-14.933 32-32 32zm-202.667 66.133L204.8 121.6c-12.8-12.8-12.8-32 0-44.8 6.4-6.4 14.933-8.533 23.467-8.533s17.066 2.133 23.466 8.533l104.534 104.533c12.8 12.8 12.8 32 0 44.8s-36.267 12.8-46.934 0zM288 384c0 17.067-14.933 32-32 32H106.667c-17.067 0-32-14.933-32-32s14.933-32 32-32H256c17.067 0 32 14.933 32 32zm-40.533 309.333c-12.8 12.8-32 12.8-44.8 0-12.8-12.8-12.8-32 0-44.8L307.2 544c6.4-6.4 14.933-8.533 23.467-8.533s17.066 2.133 23.466 8.533c12.8 12.8 12.8 32 0 44.8L247.467 693.333z" glyph-name="loading" horiz-adv-x="1024" unicode=""/><glyph d="M512 821.333C270.933 821.333 74.667 625.067 74.667 384S270.933-53.333 512-53.333 949.333 142.933 949.333 384 753.067 821.333 512 821.333zm0-810.666C307.2 10.667 138.667 179.2 138.667 384S307.2 757.333 512 757.333 885.333 588.8 885.333 384 716.8 10.667 512 10.667zm-42.667 138.666a42.667 42.667 0 1 1 85.334 0 42.667 42.667 0 1 1-85.334 0ZM512 650.667c-76.8 0-138.667-61.867-138.667-138.667 0-17.067 14.934-32 32-32s32 14.933 32 32c0 40.533 34.134 74.667 74.667 74.667s74.667-34.134 74.667-74.667c0-27.733-53.334-76.8-91.734-100.267C486.4 405.333 480 394.667 480 384V277.333c0-17.066 14.933-32 32-32s32 14.934 32 32v89.6c34.133 25.6 106.667 83.2 106.667 145.067 0 76.8-61.867 138.667-138.667 138.667z" glyph-name="help" horiz-adv-x="1024" unicode=""/><glyph d="M512-53.333C270.933-53.333 74.667 142.933 74.667 384S270.933 821.333 512 821.333 949.333 625.067 949.333 384 753.067-53.333 512-53.333zm0 810.666C307.2 757.333 138.667 588.8 138.667 384S307.2 10.667 512 10.667 885.333 179.2 885.333 384 716.8 757.333 512 757.333zM682.667 352H341.333c-17.066 0-32 14.933-32 32s14.934 32 32 32h341.334c17.066 0 32-14.933 32-32s-14.934-32-32-32z" glyph-name="minus-circle" horiz-adv-x="1024" unicode=""/><glyph d="M405.333 437.333h-256C119.467 437.333 96 460.8 96 490.667v256C96 776.533 119.467 800 149.333 800h256c29.867 0 53.334-23.467 53.334-53.333v-256c0-29.867-23.467-53.334-53.334-53.334zm-245.333 64h234.667V736H160V501.333zm714.667-64h-256c-29.867 0-53.334 23.467-53.334 53.334v256c0 29.866 23.467 53.333 53.334 53.333h256C904.533 800 928 776.533 928 746.667v-256c0-29.867-23.467-53.334-53.333-53.334zm-245.334 64H864V736H629.333V501.333zM874.667-32h-256c-29.867 0-53.334 23.467-53.334 53.333v256c0 29.867 23.467 53.334 53.334 53.334h256c29.866 0 53.333-23.467 53.333-53.334v-256C928-8.533 904.533-32 874.667-32zM629.333 32H864v234.667H629.333V32zm-224-64h-256C119.467-32 96-8.533 96 21.333v256c0 29.867 23.467 53.334 53.333 53.334h256c29.867 0 53.334-23.467 53.334-53.334v-256C458.667-8.533 435.2-32 405.333-32zM160 32h234.667v234.667H160V32z" glyph-name="modular" horiz-adv-x="1024" unicode=""/><glyph d="M800 270.933V448c0 117.333-70.4 217.6-170.667 262.4-4.266 61.867-55.466 110.933-117.333 110.933S398.933 772.267 394.667 710.4C294.4 665.6 224 565.333 224 448V270.933C166.4 224 138.667 160 138.667 85.333c0-17.066 14.933-32 32-32H377.6C392.533-8.533 448-53.333 512-53.333s119.467 44.8 134.4 106.666h206.933c17.067 0 32 14.934 32 32 0 76.8-27.733 138.667-85.333 185.6zm-288 486.4c19.2 0 36.267-10.666 44.8-25.6C541.867 733.867 526.933 736 512 736c-14.933 0-29.867-2.133-44.8-4.267 8.533 14.934 25.6 25.6 44.8 25.6zm0-746.666c-29.867 0-55.467 17.066-66.133 42.666h134.4c-12.8-25.6-38.4-42.666-68.267-42.666zM204.8 117.333c6.4 46.934 29.867 83.2 70.4 113.067 8.533 6.4 12.8 14.933 12.8 25.6v192c0 123.733 100.267 224 224 224s224-100.267 224-224V256c0-10.667 4.267-19.2 12.8-25.6 40.533-29.867 64-66.133 70.4-113.067H204.8z" glyph-name="notification" horiz-adv-x="1024" unicode=""/><glyph d="M516.267 238.933c78.933 0 142.933 64 142.933 142.934V678.4a142.933 142.933 0 0 1-285.867 0V381.867c0-78.934 64-142.934 142.934-142.934zM437.333 678.4c0 42.667 36.267 78.933 78.934 78.933S595.2 721.067 595.2 678.4V381.867c0-42.667-36.267-78.934-78.933-78.934s-78.934 36.267-78.934 78.934V678.4zm337.067-192c-17.067 0-32-14.933-32-32v-74.667c0-125.866-102.4-228.266-228.267-228.266S288 256 288 381.867v74.666c0 17.067-14.933 32-32 32s-32-14.933-32-32v-74.666C224 232.533 337.067 108.8 484.267 91.733V6.4H366.933c-17.066 0-32-14.933-32-32s14.934-32 32-32h296.534c17.066 0 32 14.933 32 32s-14.934 32-32 32H546.133v85.333C691.2 106.667 806.4 232.533 806.4 381.867v74.666c0 17.067-12.8 29.867-32 29.867z" glyph-name="mic" horiz-adv-x="1024" unicode=""/><glyph d="M512 821.333C270.933 821.333 74.667 625.067 74.667 384S270.933-53.333 512-53.333 949.333 142.933 949.333 384 753.067 821.333 512 821.333zm0-810.666C307.2 10.667 138.667 179.2 138.667 384S307.2 757.333 512 757.333 885.333 588.8 885.333 384 716.8 10.667 512 10.667zM469.333 384a42.667 42.667 0 1 1 85.334 0 42.667 42.667 0 1 1-85.334 0Zm-170.666 0A42.667 42.667 0 1 1 384 384a42.667 42.667 0 1 1-85.333 0ZM640 384a42.667 42.667 0 1 1 85.333 0A42.667 42.667 0 1 1 640 384Z" glyph-name="more" horiz-adv-x="1024" unicode=""/><glyph d="M810.667-53.333H213.333c-40.533 0-74.666 34.133-74.666 74.666v725.334c0 40.533 34.133 74.666 74.666 74.666h597.334c40.533 0 74.666-34.133 74.666-74.666V21.333c0-40.533-34.133-74.666-74.666-74.666zM213.333 757.333c-6.4 0-10.666-4.266-10.666-10.666V21.333c0-6.4 4.266-10.666 10.666-10.666h597.334c6.4 0 10.666 4.266 10.666 10.666v725.334c0 6.4-4.266 10.666-10.666 10.666H213.333zm256-629.333a42.667 42.667 0 1 1 85.334 0 42.667 42.667 0 1 1-85.334 0Z" glyph-name="pad" horiz-adv-x="1024" unicode=""/><glyph d="M823.467 384H578.133v187.733c0 66.134-53.333 119.467-117.333 119.467s-117.333-53.333-117.333-119.467V275.2l-21.334 21.333c-46.933 46.934-121.6 46.934-168.533 2.134s-44.8-121.6 2.133-168.534L330.667-44.8c6.4-6.4 14.933-8.533 23.466-8.533 8.534 0 17.067 2.133 23.467 8.533 12.8 12.8 12.8 32 0 44.8L202.667 174.933c-21.334 21.334-23.467 57.6-2.134 76.8 21.334 21.334 55.467 19.2 76.8-2.133L352 174.933c12.8-12.8 32-12.8 44.8 0 6.4 6.4 8.533 14.934 8.533 23.467v371.2c0 29.867 23.467 55.467 53.334 55.467S512 599.467 512 569.6V349.867c0-17.067 14.933-32 32-32h277.333c6.4 0 10.667-6.4 10.667-12.8v-326.4c0-17.067 14.933-32 32-32s32 14.933 32 32v330.666C898.133 349.867 864 384 823.467 384zm-556.8 181.333c17.066 0 32 14.934 32 32 0 87.467 72.533 160 160 160s160-72.533 160-160c0-17.066 14.933-32 32-32s32 14.934 32 32c0 123.734-100.267 224-224 224s-224-100.266-224-224c0-17.066 14.933-32 32-32z" glyph-name="operation" horiz-adv-x="1024" unicode=""/><glyph d="M512 821.333C270.933 821.333 74.667 625.067 74.667 384S270.933-53.333 512-53.333 949.333 142.933 949.333 384 753.067 821.333 512 821.333zm0-810.666C307.2 10.667 138.667 179.2 138.667 384S307.2 757.333 512 757.333 885.333 588.8 885.333 384 716.8 10.667 512 10.667zm196.267 420.266L473.6 565.333c-8.533 4.267-17.067 6.4-25.6 6.4-29.867 0-53.333-23.466-53.333-53.333V249.6c0-8.533 2.133-19.2 6.4-25.6 10.666-17.067 27.733-27.733 46.933-27.733 8.533 0 17.067 2.133 25.6 6.4l234.667 134.4c8.533 4.266 14.933 10.666 19.2 19.2 6.4 12.8 8.533 27.733 4.266 40.533-2.133 14.933-10.666 25.6-23.466 34.133zM458.667 268.8v230.4L661.333 384 458.667 268.8z" glyph-name="play" horiz-adv-x="1024" unicode=""/><glyph d="M819.2 531.2h-44.8V768c0 17.067-14.933 32-32 32H281.6c-17.067 0-32-14.933-32-32V531.2h-44.8C145.067 531.2 96 482.133 96 422.4v-192c0-59.733 49.067-108.8 108.8-108.8h44.8V0c0-17.067 14.933-32 32-32h460.8c17.067 0 32 14.933 32 32v121.6h44.8c59.733 0 108.8 49.067 108.8 108.8v192c0 59.733-49.067 108.8-108.8 108.8zM313.6 736h396.8V531.2H313.6V736zM710.4 32H313.6v243.2h396.8V32zM864 230.4c0-25.6-19.2-44.8-44.8-44.8h-44.8v121.6c0 17.067-14.933 32-32 32H281.6c-17.067 0-32-14.933-32-32V185.6h-44.8c-25.6 0-44.8 19.2-44.8 44.8v192c0 25.6 19.2 44.8 44.8 44.8h614.4c25.6 0 44.8-19.2 44.8-44.8v-192z" glyph-name="print" horiz-adv-x="1024" unicode=""/><glyph d="M746.667-53.333H277.333c-40.533 0-74.666 34.133-74.666 74.666v725.334c0 40.533 34.133 74.666 74.666 74.666h469.334c40.533 0 74.666-34.133 74.666-74.666V21.333c0-40.533-34.133-74.666-74.666-74.666zM277.333 757.333c-6.4 0-10.666-4.266-10.666-10.666V21.333c0-6.4 4.266-10.666 10.666-10.666h469.334c6.4 0 10.666 4.266 10.666 10.666v725.334c0 6.4-4.266 10.666-10.666 10.666H277.333zm192-629.333a42.667 42.667 0 1 1 85.334 0 42.667 42.667 0 1 1-85.334 0Zm128 522.667H426.667c-17.067 0-32 14.933-32 32s14.933 32 32 32h170.666c17.067 0 32-14.934 32-32s-14.933-32-32-32z" glyph-name="mobile-phone" horiz-adv-x="1024" unicode=""/><glyph d="M853.333 352H170.667c-17.067 0-32 14.933-32 32s14.933 32 32 32h682.666c17.067 0 32-14.933 32-32s-14.933-32-32-32z" glyph-name="minus" horiz-adv-x="1024" unicode=""/><glyph d="M834.133 682.667c-6.4 12.8-17.066 23.466-29.866 27.733-12.8 4.267-27.734 4.267-40.534-2.133l-657.066-313.6c-14.934-6.4-25.6-21.334-29.867-36.267-6.4-27.733 12.8-57.6 40.533-64l249.6-53.333 53.334-249.6C424.533-25.6 435.2-38.4 450.133-44.8c6.4-4.267 14.934-4.267 23.467-4.267 19.2 0 38.4 10.667 49.067 29.867l313.6 657.067c6.4 12.8 6.4 29.866-2.134 44.8zM477.867 34.133l-51.2 238.934c-2.134 12.8-12.8 21.333-23.467 23.466l-241.067 53.334 601.6 288L477.867 34.133z" glyph-name="navigation" horiz-adv-x="1024" unicode=""/><glyph d="M582.4 32H170.667C164.267 32 160 36.267 160 42.667v682.666c0 6.4 4.267 10.667 10.667 10.667H480V576c0-40.533 34.133-74.667 74.667-74.667h160v-38.4c0-17.066 14.933-32 32-32s32 14.934 32 32v134.4c0 8.534-4.267 17.067-8.534 23.467L599.467 791.467c-6.4 6.4-14.934 8.533-23.467 8.533H170.667C130.133 800 96 765.867 96 725.333V42.667C96 2.133 130.133-32 170.667-32H582.4c17.067 0 32 14.933 32 32s-14.933 32-32 32zm132.267 550.4v-17.067h-160c-6.4 0-10.667 4.267-10.667 10.667v160h19.2l151.467-153.6zM332.8 362.667c-12.8 0-19.2-2.134-25.6-6.4-6.4-4.267-8.533-12.8-8.533-23.467V125.867c0-6.4 2.133-12.8 6.4-19.2 4.266-4.267 10.666-8.534 21.333-8.534s17.067 4.267 21.333 8.534c4.267 4.266 6.4 10.666 6.4 19.2v64h32c57.6 0 89.6 29.866 89.6 87.466 0 27.734-8.533 51.2-23.466 64-14.934 14.934-36.267 21.334-66.134 21.334H332.8zm87.467-85.334c0-12.8-2.134-23.466-8.534-27.733-4.266-4.267-14.933-8.533-27.733-8.533h-32v70.4h32c12.8 0 21.333-2.134 27.733-8.534 6.4-4.266 8.534-12.8 8.534-25.6zm247.466 46.934c-8.533 12.8-21.333 21.333-34.133 29.866-14.933 4.267-32 8.534-51.2 8.534h-61.867c-8.533 0-17.066 0-23.466-8.534-2.134-4.266-4.267-10.666-4.267-19.2V128c0-8.533 2.133-14.933 4.267-19.2 6.4-8.533 14.933-8.533 23.466-8.533h64c19.2 0 34.134 4.266 49.067 10.666 12.8 6.4 25.6 17.067 34.133 29.867 8.534 12.8 14.934 25.6 19.2 42.667 4.267 14.933 6.4 32 6.4 49.066 0 17.067-2.133 34.134-6.4 49.067-4.266 14.933-10.666 29.867-19.2 42.667zm-42.666-153.6c-8.534-12.8-21.334-19.2-38.4-19.2h-38.4v160H576c21.333 0 38.4-6.4 46.933-19.2 10.667-12.8 14.934-34.134 14.934-59.734 2.133-27.733-4.267-46.933-12.8-61.866zm226.133 192H744.533c-8.533 0-17.066-2.134-21.333-6.4-6.4-4.267-8.533-12.8-8.533-21.334V125.867c0-6.4 2.133-12.8 6.4-17.067 4.266-6.4 10.666-8.533 21.333-8.533 8.533 0 17.067 2.133 21.333 8.533 2.134 4.267 6.4 8.533 6.4 19.2v85.333h72.534c12.8 0 23.466 6.4 25.6 17.067 2.133 8.533 2.133 14.933 0 17.067-2.134 4.266-6.4 17.066-25.6 17.066H768V313.6h81.067c8.533 0 14.933 2.133 19.2 4.267C872.533 320 876.8 326.4 876.8 339.2c2.133 12.8-8.533 23.467-25.6 23.467z" glyph-name="pdf" horiz-adv-x="1024" unicode=""/><glyph d="M512 821.333C270.933 821.333 74.667 625.067 74.667 384S270.933-53.333 512-53.333 949.333 142.933 949.333 384 753.067 821.333 512 821.333zm0-810.666C307.2 10.667 138.667 179.2 138.667 384S307.2 757.333 512 757.333 885.333 588.8 885.333 384 716.8 10.667 512 10.667zM469.333 576a42.667 42.667 0 1 1 85.334 0 42.667 42.667 0 1 1-85.334 0ZM512 458.667c-17.067 0-32-14.934-32-32V192c0-17.067 14.933-32 32-32s32 14.933 32 32v234.667c0 17.066-14.933 32-32 32z" glyph-name="prompt" horiz-adv-x="1024" unicode=""/><glyph d="M921.6 403.2 800 524.8c-12.8 12.8-32 12.8-44.8 0s-12.8-32 0-44.8l66.133-66.133H544V691.2l66.133-66.133c6.4-6.4 14.934-8.534 23.467-8.534s17.067 2.134 23.467 8.534c12.8 12.8 12.8 32 0 44.8l-121.6 121.6c-12.8 12.8-32 12.8-44.8 0l-121.6-121.6c-12.8-12.8-12.8-32 0-44.8 12.8-12.8 32-12.8 44.8 0L480 691.2V413.867H202.667L268.8 480c12.8 12.8 12.8 32 0 44.8-12.8 12.8-32 12.8-44.8 0L102.4 403.2c-12.8-12.8-12.8-32 0-44.8L224 236.8c6.4-6.4 14.933-8.533 23.467-8.533s17.066 2.133 23.466 8.533c12.8 12.8 12.8 32 0 44.8L204.8 347.733h277.333V70.4L416 136.533c-12.8 12.8-32 12.8-44.8 0s-12.8-32 0-44.8l121.6-121.6c6.4-6.4 14.933-8.533 23.467-8.533s17.066 2.133 23.466 8.533l121.6 121.6c12.8 12.8 12.8 32 0 44.8s-32 12.8-44.8 0L550.4 70.4v277.333h277.333L761.6 281.6c-12.8-12.8-12.8-32 0-44.8 6.4-6.4 14.933-8.533 23.467-8.533s17.066 2.133 23.466 8.533l121.6 121.6c6.4 6.4 8.534 14.933 8.534 23.467S928 396.8 921.6 403.2z" glyph-name="move" horiz-adv-x="1024" unicode=""/><glyph d="M934.4 689.067c-17.067 4.266-34.133-6.4-38.4-23.467l-23.467-87.467C797.867 712.533 654.933 800 497.067 800c-232.534 0-422.4-185.6-422.4-416s189.866-416 422.4-416c179.2 0 339.2 110.933 398.933 275.2 6.4 17.067-2.133 34.133-19.2 40.533-17.067 6.4-34.133-2.133-40.533-19.2C785.067 125.867 648.533 32 497.067 32c-198.4 0-358.4 157.867-358.4 352s162.133 352 358.4 352c145.066 0 277.333-87.467 330.666-217.6l-128 36.267c-17.066 4.266-34.133-6.4-38.4-23.467-4.266-17.067 6.4-34.133 23.467-38.4l185.6-49.067c2.133 0 6.4-2.133 8.533-2.133 6.4 0 10.667 2.133 17.067 4.267 6.4 4.266 12.8 10.666 14.933 19.2L960 650.667c0 17.066-8.533 34.133-25.6 38.4z" glyph-name="refresh" horiz-adv-x="1024" unicode=""/><glyph d="m409.6 601.339 71.053 71.053V423.706c0-16.718 14.629-31.347 31.347-31.347s31.347 14.629 31.347 31.347v250.776l71.053-71.053c6.27-6.27 14.629-8.36 22.988-8.36s16.718 2.09 22.988 8.36c12.538 12.538 12.538 31.347 0 43.885L534.988 772.702c-12.539 12.539-31.347 12.539-43.886 0L365.714 647.314c-12.538-12.538-12.538-31.347 0-43.885 10.45-12.54 31.347-12.54 43.886-2.09zm526.629-156.735-242.417 81.502c-16.718 6.27-33.436-4.18-39.706-18.808-6.27-16.718 4.18-33.437 18.808-39.706l156.735-52.245L512 302.498 194.351 415.347l156.735 52.245c16.718 6.27 25.077 22.988 18.808 39.706-6.27 16.718-22.988 25.078-39.706 18.808L87.77 444.604c-12.538-4.18-20.898-16.718-20.898-29.257 0-12.539 8.36-25.078 20.898-29.257l413.78-146.286c4.18-2.09 6.27-2.09 10.449-2.09s6.27 0 10.449 2.09l413.78 146.286c12.538 4.18 20.898 16.718 20.898 29.257 0 14.629-8.36 25.077-20.898 29.257zM512 181.29c-16.718 0-31.347-14.629-31.347-31.347V-6.792c0-16.718 14.629-31.347 31.347-31.347s31.347 14.629 31.347 31.347v156.735c0 16.718-14.629 31.347-31.347 31.347z" glyph-name="run-up" horiz-adv-x="1024" unicode=""/><glyph d="M819.2 800H204.8C145.067 800 96 750.933 96 691.2V74.667c0-59.734 49.067-108.8 108.8-108.8h616.533c59.734 0 108.8 49.066 108.8 108.8V691.2C928 750.933 878.933 800 819.2 800zM160 76.8v614.4c0 23.467 19.2 44.8 44.8 44.8h616.533c23.467 0 44.8-19.2 44.8-44.8V302.933L740.267 428.8c-27.734 27.733-76.8 27.733-104.534 0l-390.4-384c-4.266-4.267-6.4-8.533-6.4-12.8H204.8C179.2 32 160 51.2 160 76.8zM819.2 32H324.267L678.4 386.133c2.133 2.134 6.4 2.134 8.533 2.134s4.267 0 8.534-2.134l160-160c4.266-4.266 8.533-6.4 12.8-6.4V76.8C864 51.2 844.8 32 819.2 32zM375.467 413.867c59.733 0 106.666 46.933 106.666 106.666S435.2 627.2 375.467 627.2 268.8 580.267 268.8 520.533s49.067-106.666 106.667-106.666zm0 149.333c23.466 0 42.666-19.2 42.666-42.667s-19.2-42.666-42.666-42.666-42.667 19.2-42.667 42.666S352 563.2 375.467 563.2z" glyph-name="picture" horiz-adv-x="1024" unicode=""/><glyph d="M612.352 130.048 542.72 60.416V179.2c0 16.384-14.336 30.72-30.72 30.72s-30.72-14.336-30.72-30.72V58.368L411.648 128c-12.288 12.288-30.72 12.288-43.008 0s-12.288-30.72 0-43.008l122.88-122.88c6.144-6.144 14.336-8.192 22.528-8.192s16.384 2.048 22.528 8.192l122.88 122.88c12.288 12.288 12.288 30.72 0 43.008s-34.816 12.288-47.104 2.048zm315.392 344.064-237.568 79.872c-16.384 6.144-32.768-4.096-38.912-18.432-6.144-16.384 4.096-32.768 18.432-38.912l153.6-51.2L512 334.848 200.704 445.44l153.6 51.2c16.384 6.144 24.576 22.528 18.432 38.912-6.144 16.384-22.528 24.576-38.912 18.432L96.256 474.112c-12.288-4.096-20.48-16.384-20.48-28.672s8.192-24.576 20.48-28.672l405.504-143.36c4.096-2.048 6.144-2.048 10.24-2.048s6.144 0 10.24 2.048l405.504 143.36c12.288 4.096 20.48 16.384 20.48 28.672 0 14.336-8.192 24.576-20.48 28.672zM512 394.24c16.384 0 30.72 14.336 30.72 30.72V742.4c0 16.384-14.336 30.72-30.72 30.72s-30.72-14.336-30.72-30.72V424.96c0-16.384 14.336-30.72 30.72-30.72z" glyph-name="run-in" horiz-adv-x="1024" unicode=""/><glyph d="M911.151 572.082 689.633 793.6c-18.809 18.808-50.155 20.898-71.053 2.09L351.086 565.812l-96.13-14.628c-6.27 0-12.54-4.18-16.72-8.36l-58.514-58.514c-20.898-20.898-20.898-54.334 0-73.143l152.556-152.555-206.89-206.89c-12.539-12.538-12.539-31.346 0-43.885 6.27-6.27 14.628-10.45 20.898-10.45s16.718 2.09 22.987 8.36l204.8 204.8L526.63 57.992c10.449-10.45 22.987-14.629 37.616-14.629s27.167 6.27 37.616 14.629l58.515 58.514c4.18 4.18 8.359 10.45 8.359 16.718l14.628 96.131L911.151 496.85c18.808 25.078 18.808 56.424 0 75.233zm-280.033-305.11c-4.18-4.18-6.269-10.45-6.269-14.63l-14.629-94.04-45.975-45.975-334.367 334.367 43.885 43.886 94.041 14.628c6.27 0 10.45 4.18 14.629 6.27l269.583 229.877 206.89-206.89-227.788-267.494z" glyph-name="pin" horiz-adv-x="1024" unicode=""/><glyph d="M906.667 597.333 725.333 778.667C710.4 793.6 693.333 800 672 800H170.667C130.133 800 96 765.867 96 725.333V42.667C96 2.133 130.133-32 170.667-32h682.666C893.867-32 928 2.133 928 42.667v503.466c0 19.2-8.533 38.4-21.333 51.2zM652.8 32H371.2v215.467h281.6V32zM864 42.667c0-6.4-4.267-10.667-10.667-10.667h-140.8v245.333c0 17.067-12.8 29.867-29.866 29.867H341.333c-17.066 0-29.866-12.8-29.866-29.867V32h-140.8C164.267 32 160 36.267 160 42.667v682.666c0 6.4 4.267 10.667 10.667 10.667h140.8V576c0-17.067 12.8-29.867 29.866-29.867h277.334c17.066 0 29.866 12.8 29.866 29.867s-12.8 29.867-29.866 29.867H371.2V736h302.933c2.134 0 6.4-2.133 8.534-2.133l179.2-179.2C864 552.533 864 550.4 864 546.133V42.667z" glyph-name="save" horiz-adv-x="1024" unicode=""/><glyph d="M945.067-2.133 755.2 187.733c55.467 64 87.467 149.334 87.467 241.067 0 204.8-168.534 373.333-373.334 373.333S96 631.467 96 426.667 264.533 53.333 469.333 53.333c91.734 0 174.934 34.134 241.067 87.467L900.267-49.067c6.4-6.4 14.933-8.533 23.466-8.533s17.067 2.133 23.467 8.533c8.533 12.8 8.533 34.134-2.133 46.934zM469.333 117.333C298.667 117.333 160 256 160 426.667S298.667 736 469.333 736s309.334-138.667 309.334-309.333S640 117.333 469.333 117.333z" glyph-name="search" horiz-adv-x="1024" unicode=""/><glyph d="M874.667 352c-17.067 0-32-14.933-32-32V64c0-6.4-4.267-10.667-10.667-10.667H192c-6.4 0-10.667 4.267-10.667 10.667v640c0 6.4 4.267 10.667 10.667 10.667h256c17.067 0 32 14.933 32 32s-14.933 32-32 32H192c-40.533 0-74.667-34.134-74.667-74.667V64c0-40.533 34.134-74.667 74.667-74.667h640c40.533 0 74.667 34.134 74.667 74.667v256c0 17.067-14.934 32-32 32zm0 426.667H640c-17.067 0-32-14.934-32-32s14.933-32 32-32h157.867l-288-285.867c-12.8-12.8-12.8-32 0-44.8 6.4-6.4 14.933-8.533 23.466-8.533S550.4 377.6 556.8 384l285.867 285.867V512c0-17.067 14.933-32 32-32s32 14.933 32 32v234.667c0 17.066-14.934 32-32 32z" glyph-name="share" horiz-adv-x="1024" unicode=""/><glyph d="M341.333 32H170.667C164.267 32 160 36.267 160 42.667v170.666c0 17.067-14.933 32-32 32s-32-14.933-32-32V42.667C96 2.133 130.133-32 170.667-32h170.666c17.067 0 32 14.933 32 32s-14.933 32-32 32zM896 245.333c-17.067 0-32-14.933-32-32V42.667c0-6.4-4.267-10.667-10.667-10.667H682.667c-17.067 0-32-14.933-32-32s14.933-32 32-32h170.666C893.867-32 928 2.133 928 42.667v170.666c0 17.067-14.933 32-32 32zM128 522.667c17.067 0 32 14.933 32 32v170.666c0 6.4 4.267 10.667 10.667 10.667h170.666c17.067 0 32 14.933 32 32s-14.933 32-32 32H170.667C130.133 800 96 765.867 96 725.333V554.667c0-17.067 14.933-32 32-32zM853.333 800H682.667c-17.067 0-32-14.933-32-32s14.933-32 32-32h170.666c6.4 0 10.667-4.267 10.667-10.667V554.667c0-17.067 14.933-32 32-32s32 14.933 32 32v170.666C928 765.867 893.867 800 853.333 800zM896 426.667H128c-17.067 0-32-14.934-32-32s14.933-32 32-32h768c17.067 0 32 14.933 32 32s-14.933 32-32 32z" glyph-name="scanning" horiz-adv-x="1024" unicode=""/><glyph d="M814.933 716.8 529.067 817.067c-10.667 4.266-23.467 4.266-34.134 0L209.067 716.8C179.2 706.133 160 678.4 160 646.4V298.667c0-194.134 157.867-352 352-352s352 157.866 352 352V646.4c0 32-19.2 61.867-49.067 70.4zM800 298.667c0-157.867-130.133-288-288-288s-288 130.133-288 288V646.4c0 4.267 2.133 8.533 6.4 10.667L512 755.2l281.6-98.133c4.267-2.134 6.4-6.4 6.4-10.667V298.667zM659.2 492.8l-192-194.133-85.333 68.266c-12.8 10.667-34.134 8.534-44.8-4.266-10.667-12.8-8.534-34.134 4.266-44.8L448 232.533c6.4-4.266 12.8-6.4 19.2-6.4 8.533 0 17.067 2.134 23.467 8.534L704 448c12.8 12.8 12.8 32 0 44.8-10.667 10.667-32 10.667-44.8 0z" glyph-name="security" horiz-adv-x="1024" unicode=""/><glyph d="M919.467 407.467 770.133 556.8c-12.8 12.8-32 12.8-44.8 0-12.8-12.8-12.8-32 0-44.8l93.867-93.867H522.667c-17.067 0-32-14.933-32-32s14.933-32 32-32H819.2l-93.867-93.866c-12.8-12.8-12.8-32 0-44.8 6.4-6.4 14.934-8.534 23.467-8.534s17.067 2.134 23.467 8.534L921.6 364.8c8.533 8.533 8.533 29.867-2.133 42.667zM832 181.333c-17.067 0-32-14.933-32-32V42.667c0-6.4-4.267-10.667-10.667-10.667H234.667C228.267 32 224 36.267 224 42.667v682.666c0 6.4 4.267 10.667 10.667 10.667h554.666c6.4 0 10.667-4.267 10.667-10.667V618.667c0-17.067 14.933-32 32-32s32 14.933 32 32v106.666C864 765.867 829.867 800 789.333 800H234.667C194.133 800 160 765.867 160 725.333V42.667C160 2.133 194.133-32 234.667-32h554.666C829.867-32 864 2.133 864 42.667v106.666c0 17.067-14.933 32-32 32z" glyph-name="sign-out" horiz-adv-x="1024" unicode=""/><glyph d="M409.6 138.667c-8.533 0-17.067 2.133-23.467 8.533L147.2 381.867c-12.8 12.8-12.8 32 0 44.8 12.8 12.8 32 12.8 44.8 0l215.467-213.334 422.4 428.8c12.8 12.8 32 12.8 44.8 0 12.8-12.8 12.8-32 0-44.8l-443.734-448c-4.266-8.533-12.8-10.666-21.333-10.666z" glyph-name="select" horiz-adv-x="1024" unicode=""/><glyph d="M512 821.333C270.933 821.333 74.667 625.067 74.667 384S270.933-53.333 512-53.333 949.333 142.933 949.333 384 753.067 821.333 512 821.333zM885.333 384c0-85.333-29.866-164.267-78.933-228.267L273.067 669.867c64 55.466 149.333 87.466 238.933 87.466 204.8 0 373.333-168.533 373.333-373.333zm-746.666 0c0 91.733 34.133 174.933 87.466 241.067L761.6 108.8C695.467 49.067 608 10.667 509.867 10.667c-202.667 0-371.2 168.533-371.2 373.333z" glyph-name="stop" horiz-adv-x="1024" unicode=""/><glyph d="M512 821.333C270.933 821.333 74.667 625.067 74.667 384S270.933-53.333 512-53.333 949.333 142.933 949.333 384 753.067 821.333 512 821.333zm0-810.666C307.2 10.667 138.667 179.2 138.667 384S307.2 757.333 512 757.333 885.333 588.8 885.333 384 716.8 10.667 512 10.667zm189.867 503.466L448 258.133 322.133 384c-12.8 12.8-32 12.8-44.8 0-12.8-12.8-12.8-32 0-44.8l149.334-149.333c6.4-6.4 14.933-8.534 23.466-8.534s17.067 2.134 23.467 8.534L750.933 467.2c12.8 12.8 12.8 32 0 44.8-14.933 12.8-36.266 12.8-49.066 2.133z" glyph-name="success" horiz-adv-x="1024" unicode=""/><glyph d="M512 821.333C270.933 821.333 74.667 625.067 74.667 384S270.933-53.333 512-53.333 949.333 142.933 949.333 384 753.067 821.333 512 821.333zm0-810.666C307.2 10.667 138.667 179.2 138.667 384S307.2 757.333 512 757.333 885.333 588.8 885.333 384 716.8 10.667 512 10.667zM674.133 288C627.2 230.4 573.867 202.667 512 202.667S396.8 230.4 349.867 288c-10.667 12.8-32 14.933-44.8 4.267-12.8-10.667-14.934-32-4.267-44.8C360.533 177.067 430.933 140.8 512 140.8s151.467 36.267 211.2 106.667c10.667 12.8 8.533 34.133-4.267 44.8-12.8 10.666-34.133 8.533-44.8-4.267zm-311.466 96c23.466 0 42.666 19.2 42.666 42.667v64c0 23.466-19.2 42.666-42.666 42.666S320 514.133 320 490.667v-64C320 403.2 339.2 384 362.667 384zm298.666 0C684.8 384 704 403.2 704 426.667v64c0 23.466-19.2 42.666-42.667 42.666s-42.666-19.2-42.666-42.666v-64c0-23.467 19.2-42.667 42.666-42.667z" glyph-name="smile" horiz-adv-x="1024" unicode=""/><glyph d="M128 373.333c17.067 0 32 14.934 32 32V576c0 6.4 4.267 10.667 10.667 10.667h652.8l-83.2-83.2c-12.8-12.8-12.8-34.134 0-46.934 6.4-6.4 14.933-10.666 23.466-10.666s17.067 4.266 23.467 10.666L932.267 601.6c12.8 12.8 12.8 34.133 0 46.933L787.2 793.6c-12.8 12.8-34.133 12.8-46.933 0-12.8-12.8-12.8-34.133 0-46.933l93.866-93.867H170.667C130.133 652.8 96 618.667 96 578.133V407.467c0-19.2 14.933-34.134 32-34.134zm778.667 21.334c-17.067 0-32-14.934-32-32V192c0-6.4-4.267-10.667-10.667-10.667H211.2l83.2 83.2c12.8 12.8 12.8 34.134 0 46.934-12.8 12.8-34.133 12.8-46.933 0L102.4 166.4c-12.8-12.8-12.8-34.133 0-46.933L247.467-25.6c6.4-6.4 14.933-10.667 23.466-10.667S288-32 294.4-25.6c12.8 12.8 12.8 34.133 0 46.933L200.533 115.2H864c40.533 0 74.667 34.133 74.667 74.667v170.666c0 19.2-12.8 34.134-32 34.134z" glyph-name="switch" horiz-adv-x="1024" unicode=""/><glyph d="M904.533 473.6 819.2 488.533l-17.067 38.4 49.067 70.4c14.933 21.334 12.8 49.067-6.4 68.267l-53.333 53.333c-19.2 19.2-46.934 21.334-68.267 6.4l-70.4-49.066-38.4 17.066-14.933 85.334c-2.134 23.466-23.467 42.666-49.067 42.666h-74.667c-25.6 0-46.933-19.2-53.333-44.8L407.467 691.2l-38.4-17.067-72.534 51.2c-21.333 14.934-49.066 12.8-68.266-6.4L174.933 665.6c-19.2-19.2-21.333-46.933-6.4-68.267l49.067-70.4-17.067-38.4L115.2 473.6c-21.333-4.267-40.533-25.6-40.533-51.2v-74.667c0-25.6 19.2-46.933 44.8-53.333l85.333-14.933 17.067-38.4-51.2-72.534c-14.934-21.333-12.8-49.066 6.4-68.266L230.4 46.933c19.2-19.2 46.933-21.333 68.267-6.4l70.4 49.067 38.4-17.067L422.4-12.8c4.267-25.6 25.6-44.8 53.333-44.8H550.4c25.6 0 46.933 19.2 53.333 44.8l14.934 85.333 38.4 17.067 70.4-49.067c21.333-14.933 49.066-12.8 68.266 6.4l53.334 53.334c19.2 19.2 21.333 46.933 6.4 68.266l-49.067 70.4 17.067 38.4 85.333 14.934c25.6 4.266 44.8 25.6 44.8 53.333v74.667c-4.267 27.733-23.467 49.066-49.067 53.333zm-19.2-117.333L791.467 339.2c-10.667-2.133-19.2-8.533-23.467-19.2l-29.867-70.4c-4.266-10.667-2.133-21.333 4.267-29.867l53.333-76.8L755.2 102.4l-76.8 53.333c-8.533 6.4-21.333 8.534-29.867 4.267L576 128c-10.667-4.267-17.067-12.8-19.2-23.467l-17.067-93.866h-57.6l-17.066 93.866c-2.134 10.667-8.534 19.2-19.2 23.467l-70.4 29.867C364.8 162.133 354.133 160 345.6 153.6l-76.8-53.333-40.533 40.533 53.333 76.8c6.4 8.533 8.533 21.333 4.267 29.867L256 320c-4.267 10.667-12.8 17.067-23.467 19.2l-93.866 17.067v57.6l93.866 17.066c10.667 2.134 19.2 8.534 23.467 19.2l29.867 70.4C290.133 531.2 288 541.867 281.6 550.4l-53.333 76.8 40.533 40.533 76.8-53.333c8.533-6.4 21.333-8.533 29.867-4.267L448 640c10.667 4.267 17.067 12.8 19.2 23.467l17.067 93.866h57.6l17.066-93.866c2.134-10.667 8.534-19.2 19.2-23.467l70.4-29.867C659.2 605.867 669.867 608 678.4 614.4l76.8 53.333 40.533-40.533-53.333-76.8c-6.4-8.533-8.533-21.333-4.267-29.867L768 448c4.267-10.667 12.8-17.067 23.467-19.2l93.866-17.067v-55.466zM512 501.333C448 501.333 394.667 448 394.667 384S448 266.667 512 266.667 629.333 320 629.333 384 576 501.333 512 501.333zm0-170.666c-29.867 0-53.333 23.466-53.333 53.333s23.466 53.333 53.333 53.333 53.333-23.466 53.333-53.333-23.466-53.333-53.333-53.333z" glyph-name="setting" horiz-adv-x="1024" unicode=""/><glyph d="M810.667 757.333h-85.334V768c0 29.867-23.466 53.333-53.333 53.333H352c-29.867 0-53.333-23.466-53.333-53.333v-10.667h-85.334c-40.533 0-74.666-34.133-74.666-74.666V21.333c0-40.533 34.133-74.666 74.666-74.666h597.334c40.533 0 74.666 34.133 74.666 74.666v661.334c0 40.533-34.133 74.666-74.666 74.666zm-149.334 0v-64H362.667v64h298.666zm160-736c0-6.4-4.266-10.666-10.666-10.666H213.333c-6.4 0-10.666 4.266-10.666 10.666v661.334c0 6.4 4.266 10.666 10.666 10.666h85.334v-10.666c0-29.867 23.466-53.334 53.333-53.334h320c29.867 0 53.333 23.467 53.333 53.334v10.666h85.334c6.4 0 10.666-4.266 10.666-10.666V21.333zM659.2 450.133 448 236.8 364.8 320c-12.8 12.8-32 12.8-44.8 0s-12.8-32 0-44.8l106.667-106.667c6.4-6.4 14.933-8.533 23.466-8.533s17.067 2.133 23.467 8.533L708.267 403.2c12.8 12.8 12.8 32 0 44.8-14.934 12.8-36.267 12.8-49.067 2.133z" glyph-name="survey" horiz-adv-x="1024" unicode=""/><glyph d="M846.933 780.8c-8.533 6.4-21.333 6.4-29.866 2.133 0 0-74.667-34.133-174.934-34.133-49.066 0-96 17.067-145.066 34.133-53.334 19.2-106.667 38.4-166.4 38.4-119.467 0-162.134-40.533-168.534-44.8-4.266-6.4-8.533-14.933-8.533-23.466v-774.4c0-17.067 14.933-32 32-32s32 14.933 32 32V300.8c14.933 8.533 51.2 21.333 113.067 21.333 49.066 0 96-17.066 145.066-34.133 53.334-19.2 106.667-38.4 166.4-38.4 115.2 0 198.4 38.4 200.534 38.4 10.666 4.267 19.2 17.067 19.2 29.867v435.2c0 10.666-6.4 21.333-14.934 27.733zm-49.066-441.6c-27.734-10.667-85.334-25.6-155.734-25.6-49.066 0-96 17.067-145.066 34.133-53.334 19.2-106.667 38.4-166.4 38.4-49.067 0-87.467-6.4-113.067-17.066V736c14.933 8.533 51.2 21.333 113.067 21.333 49.066 0 96-17.066 145.066-34.133 53.334-19.2 106.667-38.4 166.4-38.4 64 0 119.467 12.8 155.734 23.467V339.2z" glyph-name="task" horiz-adv-x="1024" unicode=""/><glyph d="M921.6 539.733c-14.933 8.534-34.133 4.267-42.667-12.8L829.867 448c-51.2 157.867-200.534 266.667-369.067 266.667-172.8 0-324.267-115.2-373.333-277.334C83.2 420.267 91.733 403.2 108.8 396.8c17.067-4.267 34.133 4.267 40.533 21.333 40.534 136.534 166.4 232.534 311.467 232.534 140.8 0 264.533-89.6 307.2-219.734l-81.067 46.934C672 486.4 652.8 482.133 644.267 467.2c-8.534-14.933-4.267-34.133 10.666-42.667l147.2-85.333c4.267-2.133 10.667-4.267 17.067-4.267 2.133 0 6.4 0 8.533 2.134 8.534 2.133 14.934 8.533 19.2 14.933l85.334 147.2c8.533 12.8 4.266 32-10.667 40.533zM896 138.667H128c-17.067 0-32-14.934-32-32s14.933-32 32-32h768c17.067 0 32 14.933 32 32s-14.933 32-32 32z" glyph-name="skip" horiz-adv-x="1024" unicode=""/><glyph d="M853.333 757.333H170.667c-17.067 0-32-14.933-32-32v-128c0-17.066 14.933-32 32-32s32 14.934 32 32v96H480V74.667h-96c-17.067 0-32-14.934-32-32s14.933-32 32-32h256c17.067 0 32 14.933 32 32s-14.933 32-32 32h-96v618.666h277.333v-96c0-17.066 14.934-32 32-32s32 14.934 32 32v128c0 17.067-14.933 32-32 32z" glyph-name="text" horiz-adv-x="1024" unicode=""/><glyph d="M512 821.333C270.933 821.333 74.667 625.067 74.667 384S270.933-53.333 512-53.333 949.333 142.933 949.333 384 753.067 821.333 512 821.333zm0-810.666C307.2 10.667 138.667 179.2 138.667 384S307.2 757.333 512 757.333 885.333 588.8 885.333 384 716.8 10.667 512 10.667zm183.467 317.866L544 398.933v219.734c0 17.066-14.933 32-32 32s-32-14.934-32-32V379.733c0-12.8 6.4-23.466 19.2-29.866L669.867 268.8c4.266-2.133 8.533-2.133 12.8-2.133 12.8 0 23.466 6.4 29.866 19.2 6.4 14.933 0 34.133-17.066 42.666z" glyph-name="time" horiz-adv-x="1024" unicode=""/><glyph d="M817.067 309.333c-32 4.267-64 12.8-96 23.467-38.4 14.933-81.067 4.267-110.934-23.467L582.4 281.6C512 326.4 452.267 384 409.6 454.4l27.733 27.733c27.734 29.867 38.4 72.534 23.467 110.934-10.667 29.866-19.2 61.866-23.467 96-6.4 51.2-51.2 89.6-104.533 89.6H224c-32 0-59.733-12.8-78.933-34.134-19.2-21.333-29.867-51.2-27.734-81.066 12.8-117.334 53.334-230.4 117.334-328.534 57.6-91.733 136.533-170.666 228.266-228.266 98.134-64 211.2-104.534 328.534-117.334H800c25.6 0 51.2 10.667 70.4 27.734 21.333 19.2 34.133 49.066 34.133 76.8v108.8C908.8 256 868.267 300.8 817.067 309.333zm25.6-106.666v-108.8c0-10.667-4.267-23.467-12.8-29.867-8.534-8.533-19.2-10.667-29.867-10.667C693.333 64 588.8 102.4 499.2 160 416 213.333 343.467 285.867 290.133 369.067c-57.6 89.6-96 194.133-106.666 300.8 0 10.666 2.133 23.466 10.666 32 8.534 8.533 19.2 12.8 29.867 12.8h108.8c21.333 0 38.4-14.934 40.533-34.134 4.267-36.266 14.934-74.666 27.734-108.8 6.4-14.933 2.133-32-8.534-42.666L345.6 482.133c-10.667-10.666-12.8-25.6-4.267-38.4 55.467-96 134.4-174.933 230.4-230.4 12.8-6.4 27.734-4.266 38.4 4.267l46.934 46.933c10.666 10.667 27.733 14.934 42.666 8.534 36.267-12.8 72.534-21.334 108.8-27.734 19.2-2.133 34.134-19.2 34.134-42.666 0 2.133 0 2.133 0 0zm87.466 422.4c2.134 4.266 2.134 8.533 2.134 12.8s0 8.533-2.134 10.666c-2.133 4.267-4.266 8.534-6.4 10.667L793.6 789.333c-12.8 12.8-32 12.8-44.8 0-12.8-12.8-12.8-32 0-44.8l74.667-74.666H640c-17.067 0-32-14.934-32-32s14.933-32 32-32h183.467l-76.8-74.667c-12.8-12.8-12.8-32 0-44.8 6.4-6.4 14.933-8.533 23.466-8.533S787.2 480 793.6 486.4l130.133 130.133c2.134 2.134 4.267 4.267 6.4 8.534z" glyph-name="telephone-out" horiz-adv-x="1024" unicode=""/><glyph d="M874.667 96H149.333c-17.066 0-32-14.933-32-32s14.934-32 32-32h725.334c17.066 0 32 14.933 32 32s-14.934 32-32 32zM149.333 672h725.334c17.066 0 32 14.933 32 32s-14.934 32-32 32H149.333c-17.066 0-32-14.933-32-32s14.934-32 32-32zm192-256c-17.066 0-32-14.933-32-32s14.934-32 32-32h512c17.067 0 32 14.933 32 32s-14.933 32-32 32h-512zM275.2 211.2c6.4-6.4 14.933-8.533 23.467-8.533s17.066 2.133 23.466 8.533c12.8 12.8 12.8 32 0 44.8l-128 128L320 509.867c12.8 12.8 12.8 32 0 44.8-12.8 12.8-32 12.8-44.8 0L125.867 405.333c-12.8-12.8-12.8-32 0-44.8L275.2 211.2z" glyph-name="toggle-left" horiz-adv-x="1024" unicode=""/><glyph d="M874.667 96H149.333c-17.066 0-32-14.933-32-32s14.934-32 32-32h725.334c17.066 0 32 14.933 32 32s-14.934 32-32 32zM149.333 672h725.334c17.066 0 32 14.933 32 32s-14.934 32-32 32H149.333c-17.066 0-32-14.933-32-32s14.934-32 32-32zm0-320h512c17.067 0 32 14.933 32 32s-14.933 32-32 32h-512c-17.066 0-32-14.933-32-32s14.934-32 32-32zM748.8 556.8c-12.8 12.8-32 12.8-44.8 0-12.8-12.8-12.8-32 0-44.8l125.867-125.867L704 260.267c-12.8-12.8-12.8-32 0-44.8 6.4-6.4 14.933-8.534 23.467-8.534s17.066 2.134 23.466 8.534L900.267 364.8c12.8 12.8 12.8 32 0 44.8L748.8 556.8z" glyph-name="toggle-right" horiz-adv-x="1024" unicode=""/><glyph d="M817.067 309.333c-32 4.267-64 12.8-96 23.467-38.4 14.933-81.067 4.267-110.934-23.467L582.4 281.6C512 326.4 452.267 384 409.6 454.4l27.733 27.733c27.734 29.867 38.4 72.534 23.467 110.934-10.667 29.866-19.2 61.866-23.467 96-6.4 51.2-51.2 89.6-104.533 89.6H224c-32 0-59.733-12.8-78.933-34.134-19.2-21.333-29.867-51.2-27.734-81.066 12.8-117.334 53.334-230.4 117.334-328.534 57.6-91.733 136.533-170.666 228.266-228.266 98.134-64 211.2-104.534 328.534-117.334H800c25.6 0 51.2 10.667 70.4 27.734 21.333 19.2 34.133 49.066 34.133 76.8v108.8C908.8 256 868.267 300.8 817.067 309.333zm25.6-106.666v-108.8c0-10.667-4.267-23.467-12.8-29.867-8.534-8.533-19.2-10.667-29.867-10.667C693.333 64 588.8 102.4 499.2 160 416 213.333 343.467 285.867 290.133 369.067c-57.6 89.6-96 194.133-106.666 300.8 0 10.666 2.133 23.466 10.666 32 8.534 8.533 19.2 12.8 29.867 12.8h108.8c21.333 0 38.4-14.934 40.533-34.134 4.267-36.266 14.934-74.666 27.734-108.8 6.4-14.933 2.133-32-8.534-42.666L345.6 482.133c-10.667-10.666-12.8-25.6-4.267-38.4 55.467-96 134.4-174.933 230.4-230.4 12.8-6.4 27.734-4.266 38.4 4.267l46.934 46.933c10.666 10.667 27.733 14.934 42.666 8.534 36.267-12.8 72.534-21.334 108.8-27.734 19.2-2.133 34.134-19.2 34.134-42.666 0 2.133 0 2.133 0 0z" glyph-name="telephone" horiz-adv-x="1024" unicode=""/><glyph d="M896 800H128c-17.067 0-32-14.933-32-32s14.933-32 32-32h768c17.067 0 32 14.933 32 32s-14.933 32-32 32zM535.467 599.467c-12.8 12.8-32 12.8-44.8 0L277.333 386.133c-12.8-12.8-12.8-32 0-44.8s32-12.8 44.8 0L480 499.2V42.667c0-17.067 14.933-32 32-32s32 14.933 32 32V499.2l157.867-157.867c6.4-6.4 14.933-8.533 23.466-8.533s17.067 2.133 23.467 8.533c12.8 12.8 12.8 32 0 44.8L535.467 599.467z" glyph-name="top" horiz-adv-x="1024" unicode=""/><glyph d="M785.067 480h-403.2v121.6c0 74.667 61.866 134.4 138.666 134.4 59.734 0 113.067-36.267 132.267-91.733 6.4-17.067 23.467-25.6 40.533-19.2 17.067 6.4 25.6 23.466 19.2 40.533C684.8 746.667 608 800 520.533 800c-110.933 0-202.666-89.6-202.666-198.4V480h-78.934c-55.466 0-100.266-44.8-100.266-100.267V68.267C138.667 12.8 183.467-32 238.933-32h546.134c55.466 0 100.266 44.8 100.266 100.267v311.466c0 55.467-44.8 100.267-100.266 100.267zm36.266-411.733c0-19.2-17.066-36.267-36.266-36.267H238.933c-19.2 0-36.266 17.067-36.266 36.267v311.466c0 19.2 17.066 36.267 36.266 36.267h546.134c19.2 0 36.266-17.067 36.266-36.267V68.267zM512 352c-17.067 0-32-14.933-32-32V213.333c0-17.066 14.933-32 32-32s32 14.934 32 32V320c0 17.067-14.933 32-32 32z" glyph-name="unlock" horiz-adv-x="1024" unicode=""/><glyph d="M512 821.333C270.933 821.333 74.667 625.067 74.667 384S270.933-53.333 512-53.333 949.333 142.933 949.333 384 753.067 821.333 512 821.333zm-224-736c0 123.734 100.267 224 224 224s224-100.266 224-224C674.133 38.4 595.2 10.667 512 10.667S349.867 38.4 288 85.333zm128 384c0 53.334 42.667 96 96 96s96-42.666 96-96-42.667-96-96-96-96 42.667-96 96zM793.6 140.8c-19.2 96-85.333 174.933-174.933 211.2 32 29.867 51.2 70.4 51.2 117.333 0 87.467-72.534 160-160 160s-160-72.533-160-160c0-46.933 19.2-87.466 51.2-117.333-89.6-36.267-155.734-115.2-174.934-211.2C170.667 206.933 134.4 290.133 134.4 384c0 204.8 168.533 373.333 373.333 373.333S885.333 588.8 885.333 384c0-93.867-34.133-177.067-91.733-243.2z" glyph-name="user" horiz-adv-x="1024" unicode=""/><glyph d="M896 266.667c-17.067 0-32-14.934-32-32V64c0-6.4-4.267-10.667-10.667-10.667H170.667C164.267 53.333 160 57.6 160 64v170.667c0 17.066-14.933 32-32 32s-32-14.934-32-32V64c0-40.533 34.133-74.667 74.667-74.667h682.666C893.867-10.667 928 23.467 928 64v170.667c0 17.066-14.933 32-32 32zM322.133 488.533 480 646.4V192c0-17.067 14.933-32 32-32s32 14.933 32 32v456.533l157.867-157.866c6.4-6.4 14.933-8.534 23.466-8.534s17.067 2.134 23.467 8.534c12.8 12.8 12.8 32 0 44.8L535.467 748.8c-12.8 12.8-32 12.8-44.8 0L277.333 535.467c-12.8-12.8-12.8-32 0-44.8 10.667-12.8 32-12.8 44.8-2.134z" glyph-name="upload" horiz-adv-x="1024" unicode=""/><glyph d="M885.333 640h-160v57.6c-2.133 40.533-36.266 70.4-76.8 70.4H349.867c-40.534-2.133-72.534-34.133-72.534-74.667V640H138.667C98.133 640 64 605.867 64 565.333V74.667C64 34.133 98.133 0 138.667 0h746.666C925.867 0 960 34.133 960 74.667v490.666C960 605.867 925.867 640 885.333 640zm-544 53.333c2.134 6.4 6.4 10.667 12.8 10.667h296.534c6.4 0 10.666-6.4 10.666-10.667V640h-320v53.333zM138.667 576h746.666c6.4 0 10.667-4.267 10.667-10.667v-128H128v128c0 6.4 4.267 10.667 10.667 10.667zM416 373.333h192V320c0-6.4-4.267-10.667-10.667-10.667H426.667c-6.4 0-10.667 4.267-10.667 10.667v53.333zM885.333 64H138.667C132.267 64 128 68.267 128 74.667v298.666h224V320c0-40.533 34.133-74.667 74.667-74.667h170.666C637.867 245.333 672 279.467 672 320v53.333h224V74.667c0-6.4-4.267-10.667-10.667-10.667z" glyph-name="work" horiz-adv-x="1024" unicode=""/><glyph d="M853.333 693.333H544v96c0 17.067-14.933 32-32 32s-32-14.933-32-32v-96H170.667C130.133 693.333 96 659.2 96 618.667v-384C96 194.133 130.133 160 170.667 160H358.4L270.933 8.533C262.4-6.4 266.667-25.6 281.6-34.133c4.267-2.134 10.667-4.267 14.933-4.267 10.667 0 21.334 6.4 27.734 17.067l106.666 183.466H588.8L695.467-21.333C701.867-32 712.533-38.4 723.2-38.4c6.4 0 10.667 2.133 14.933 4.267C753.067-25.6 759.467-6.4 748.8 8.533L661.333 160h192C893.867 160 928 194.133 928 234.667v384c0 40.533-34.133 74.666-74.667 74.666zM864 234.667c0-6.4-4.267-10.667-10.667-10.667H170.667c-6.4 0-10.667 4.267-10.667 10.667v384c0 6.4 4.267 10.666 10.667 10.666h682.666c6.4 0 10.667-4.266 10.667-10.666v-384zm-181.333 160H341.333c-17.066 0-32-14.934-32-32s14.934-32 32-32h341.334c17.066 0 32 14.933 32 32s-14.934 32-32 32zm0 128H341.333c-17.066 0-32-14.934-32-32s14.934-32 32-32h341.334c17.066 0 32 14.933 32 32s-14.934 32-32 32z" glyph-name="training" horiz-adv-x="1024" unicode=""/><glyph d="m934.4 125.867-328.533 588.8C586.667 748.8 550.4 768 512 768c-38.4 0-74.667-21.333-93.867-53.333L89.6 125.867c-19.2-34.134-19.2-76.8 0-110.934s55.467-57.6 93.867-57.6h657.066c38.4 0 74.667 21.334 93.867 57.6 19.2 34.134 19.2 76.8 0 110.934zM878.933 44.8c-8.533-14.933-23.466-23.467-38.4-23.467H183.467c-14.934 0-29.867 8.534-38.4 23.467-8.534 14.933-8.534 34.133 0 49.067l328.533 588.8C482.133 695.467 497.067 704 512 704s29.867-8.533 38.4-21.333l328.533-588.8c8.534-14.934 8.534-32 0-49.067zm-409.6 104.533a42.667 42.667 0 1 1 85.334 0 42.667 42.667 0 1 1-85.334 0ZM512 266.667c17.067 0 32 14.933 32 32v192c0 17.066-14.933 32-32 32s-32-14.934-32-32v-192c0-17.067 14.933-32 32-32z" glyph-name="warning" horiz-adv-x="1024" unicode=""/><glyph d="M945.067-2.133 755.2 187.733c55.467 64 87.467 149.334 87.467 241.067 0 204.8-168.534 373.333-373.334 373.333S96 631.467 96 426.667 264.533 53.333 469.333 53.333c91.734 0 174.934 34.134 241.067 87.467L900.267-49.067c6.4-6.4 14.933-8.533 23.466-8.533s17.067 2.133 23.467 8.533c8.533 12.8 8.533 34.134-2.133 46.934zM469.333 117.333C298.667 117.333 160 256 160 426.667S298.667 736 469.333 736s309.334-138.667 309.334-309.333S640 117.333 469.333 117.333zm128 341.334h-256c-17.066 0-32-14.934-32-32s14.934-32 32-32h256c17.067 0 32 14.933 32 32s-14.933 32-32 32z" glyph-name="zoom-in" horiz-adv-x="1024" unicode=""/><glyph d="M945.067-2.133 755.2 187.733c55.467 64 87.467 149.334 87.467 241.067 0 204.8-168.534 373.333-373.334 373.333S96 631.467 96 426.667 264.533 53.333 469.333 53.333c91.734 0 174.934 34.134 241.067 87.467L900.267-49.067c6.4-6.4 14.933-8.533 23.466-8.533s17.067 2.133 23.467 8.533c8.533 12.8 8.533 34.134-2.133 46.934zM469.333 117.333C298.667 117.333 160 256 160 426.667S298.667 736 469.333 736s309.334-138.667 309.334-309.333S640 117.333 469.333 117.333zm128 341.334h-96v96c0 17.066-14.933 32-32 32s-32-14.934-32-32v-96h-96c-17.066 0-32-14.934-32-32s14.934-32 32-32h96v-96c0-17.067 14.934-32 32-32s32 14.933 32 32v96h96c17.067 0 32 14.933 32 32s-14.933 32-32 32z" glyph-name="zoom-out" horiz-adv-x="1024" unicode=""/><glyph d="M874.667 426.667h-320v320c0 23.466-19.2 42.666-42.667 42.666s-42.667-19.2-42.667-42.666v-320h-320c-23.466 0-42.666-19.2-42.666-42.667s19.2-42.667 42.666-42.667h320v-320c0-23.466 19.2-42.666 42.667-42.666s42.667 19.2 42.667 42.666v320h320c23.466 0 42.666 19.2 42.666 42.667s-19.2 42.667-42.666 42.667z" glyph-name="add-bold" horiz-adv-x="1024" unicode=""/><glyph d="m384 384 347.733 309.333C748.8 708.267 750.933 736 736 753.067c-14.933 17.066-42.667 19.2-59.733 4.266L292.267 416c-10.667-8.533-14.934-19.2-14.934-32s4.267-23.467 14.934-32l384-341.333C684.8 4.267 695.467 0 704 0c12.8 0 23.467 4.267 32 14.933 14.933 17.067 14.933 44.8-4.267 59.734L384 384z" glyph-name="arrow-left-bold" horiz-adv-x="1024" unicode=""/><glyph d="M904.533 221.867 541.867 584.533c-17.067 17.067-42.667 17.067-59.734 0L119.467 221.867c-17.067-17.067-17.067-42.667 0-59.734 17.066-17.066 42.666-17.066 59.733 0l332.8 332.8 332.8-332.8c8.533-8.533 19.2-12.8 29.867-12.8s21.333 4.267 29.866 12.8c17.067 17.067 17.067 42.667 0 59.734z" glyph-name="arrow-up-bold" horiz-adv-x="1024" unicode=""/><glyph d="m571.733 384 268.8 268.8c17.067 17.067 17.067 42.667 0 59.733-17.066 17.067-42.666 17.067-59.733 0L512 443.733l-268.8 268.8c-17.067 17.067-42.667 17.067-59.733 0-17.067-17.066-17.067-42.666 0-59.733l268.8-268.8-268.8-268.8c-17.067-17.067-17.067-42.667 0-59.733 8.533-8.534 19.2-12.8 29.866-12.8s21.334 4.266 29.867 12.8l268.8 268.8 268.8-268.8c8.533-8.534 19.2-12.8 29.867-12.8s21.333 4.266 29.866 12.8c17.067 17.066 17.067 42.666 0 59.733L571.733 384z" glyph-name="close-bold" horiz-adv-x="1024" unicode=""/><glyph d="M904.533 584.533c-17.066 17.067-42.666 17.067-59.733 0L512 251.733l-332.8 332.8c-17.067 17.067-42.667 17.067-59.733 0-17.067-17.066-17.067-42.666 0-59.733l362.666-362.667c8.534-8.533 19.2-12.8 29.867-12.8s21.333 4.267 29.867 12.8L904.533 524.8c17.067 17.067 17.067 42.667 0 59.733z" glyph-name="arrow-down-bold" horiz-adv-x="1024" unicode=""/><glyph d="M853.333 341.333H170.667C147.2 341.333 128 360.533 128 384s19.2 42.667 42.667 42.667h682.666C876.8 426.667 896 407.467 896 384s-19.2-42.667-42.667-42.667z" glyph-name="minus-bold" horiz-adv-x="1024" unicode=""/><glyph d="m731.733 416-384 341.333c-17.066 14.934-44.8 14.934-59.733-4.266-14.933-17.067-14.933-44.8 4.267-59.734L640 384 292.267 74.667C275.2 59.733 273.067 32 288 14.933 296.533 6.4 307.2 0 320 0c10.667 0 19.2 4.267 27.733 10.667l384 341.333c8.534 8.533 14.934 19.2 14.934 32s-4.267 23.467-14.934 32z" glyph-name="arrow-right-bold" horiz-adv-x="1024" unicode=""/><glyph d="M883.2 648.533c-17.067 17.067-44.8 17.067-59.733 0L409.6 230.4 200.533 435.2c-17.066 17.067-44.8 17.067-59.733 0-17.067-17.067-17.067-44.8 0-59.733L379.733 140.8c8.534-8.533 19.2-12.8 29.867-12.8 10.667 0 21.333 4.267 29.867 12.8l443.733 448c17.067 17.067 17.067 42.667 0 59.733z" glyph-name="select-bold" horiz-adv-x="1024" unicode=""/><glyph d="M874.667 778.667H149.333c-40.533 0-74.666-34.134-74.666-74.667V64c0-40.533 34.133-74.667 74.666-74.667h725.334c40.533 0 74.666 34.134 74.666 74.667v640c0 40.533-34.133 74.667-74.666 74.667zm-245.334-64V53.333H394.667v661.334h234.666zM138.667 64v640c0 6.4 4.266 10.667 10.666 10.667h181.334V53.333H149.333c-6.4 0-10.666 4.267-10.666 10.667zm746.666 0c0-6.4-4.266-10.667-10.666-10.667H693.333v661.334h181.334c6.4 0 10.666-4.267 10.666-10.667V64z" glyph-name="3column" horiz-adv-x="1024" unicode=""/><glyph d="M874.667 778.667H149.333c-40.533 0-74.666-34.134-74.666-74.667V64c0-40.533 34.133-74.667 74.666-74.667h725.334c40.533 0 74.666 34.134 74.666 74.667v640c0 40.533-34.133 74.667-74.666 74.667zm-330.667-64h128V53.333H544v661.334zM480 53.333H352v661.334h128V53.333zM138.667 64v640c0 6.4 4.266 10.667 10.666 10.667H288V53.333H149.333c-6.4 0-10.666 4.267-10.666 10.667zm746.666 0c0-6.4-4.266-10.667-10.666-10.667H736v661.334h138.667c6.4 0 10.666-4.267 10.666-10.667V64z" glyph-name="column-4" horiz-adv-x="1024" unicode=""/><glyph d="M853.333 416H544v309.333c0 17.067-14.933 32-32 32s-32-14.933-32-32V416H170.667c-17.067 0-32-14.933-32-32s14.933-32 32-32H480V42.667c0-17.067 14.933-32 32-32s32 14.933 32 32V352h309.333c17.067 0 32 14.933 32 32s-14.933 32-32 32z" glyph-name="add" horiz-adv-x="1024" unicode=""/><glyph d="M512 821.333C270.933 821.333 74.667 625.067 74.667 384S270.933-53.333 512-53.333 949.333 142.933 949.333 384 753.067 821.333 512 821.333zm0-810.666C307.2 10.667 138.667 179.2 138.667 384S307.2 757.333 512 757.333 885.333 588.8 885.333 384 716.8 10.667 512 10.667zM682.667 416H544v138.667c0 17.066-14.933 32-32 32s-32-14.934-32-32V416H341.333c-17.066 0-32-14.933-32-32s14.934-32 32-32H480V213.333c0-17.066 14.933-32 32-32s32 14.934 32 32V352h138.667c17.066 0 32 14.933 32 32s-14.934 32-32 32z" glyph-name="add-circle" horiz-adv-x="1024" unicode=""/><glyph d="M522.667 437.333c-17.067 0-32-14.933-32-32V42.667c0-17.067 14.933-32 32-32s32 14.933 32 32v362.666c0 17.067-14.934 32-32 32zm-181.334-96H106.667c-17.067 0-32-14.933-32-32s14.933-32 32-32h74.666V42.667c0-17.067 14.934-32 32-32s32 14.933 32 32v234.666h96c17.067 0 32 14.934 32 32s-14.933 32-32 32zm352 181.334c0 17.066-14.933 32-32 32H554.667v170.666c0 17.067-14.934 32-32 32s-32-14.933-32-32V554.667H384c-17.067 0-32-14.934-32-32s14.933-32 32-32h277.333c17.067 0 32 14.933 32 32zm224-245.334H682.667c-17.067 0-32-14.933-32-32s14.933-32 32-32h96V42.667c0-17.067 14.933-32 32-32s32 14.933 32 32v170.666h74.666c17.067 0 32 14.934 32 32s-14.933 32-32 32zm-704 160c17.067 0 32 14.934 32 32v256c0 17.067-14.933 32-32 32s-32-14.933-32-32v-256c0-17.066 14.934-32 32-32zm597.334-64c17.066 0 32 14.934 32 32v320c0 17.067-14.934 32-32 32s-32-14.933-32-32v-320c0-17.066 14.933-32 32-32z" glyph-name="adjust" horiz-adv-x="1024" unicode=""/><glyph d="M512 821.333C270.933 821.333 74.667 625.067 74.667 384S270.933-53.333 512-53.333 949.333 142.933 949.333 384 753.067 821.333 512 821.333zm0-810.666C307.2 10.667 138.667 179.2 138.667 384S307.2 757.333 512 757.333 885.333 588.8 885.333 384 716.8 10.667 512 10.667zM533.333 588.8c-12.8 10.667-32 10.667-44.8 0L307.2 418.133c-12.8-12.8-12.8-32-2.133-44.8s32-12.8 44.8-2.133l128 119.467V213.333c0-17.066 14.933-32 32-32s32 14.934 32 32v277.334l128-119.467c6.4-6.4 14.933-8.533 21.333-8.533 8.533 0 17.067 4.266 23.467 10.666 12.8 12.8 10.666 34.134-2.134 44.8L533.333 588.8z" glyph-name="arrow-up-circle" horiz-adv-x="1024" unicode=""/><glyph d="M512 821.333C270.933 821.333 74.667 625.067 74.667 384S270.933-53.333 512-53.333 949.333 142.933 949.333 384 753.067 821.333 512 821.333zm0-810.666C307.2 10.667 138.667 179.2 138.667 384S307.2 757.333 512 757.333 885.333 588.8 885.333 384 716.8 10.667 512 10.667zm34.133 576c-12.8 12.8-32 12.8-44.8 2.133-12.8-12.8-12.8-32-2.133-44.8l119.467-128H341.333c-17.066 0-32-14.933-32-32s14.934-32 32-32h277.334L499.2 224c-12.8-12.8-10.667-34.133 2.133-44.8 6.4-6.4 14.934-8.533 21.334-8.533 8.533 0 17.066 4.266 23.466 10.666L716.8 362.667c10.667 12.8 10.667 32 0 44.8l-170.667 179.2z" glyph-name="arrow-right-circle" horiz-adv-x="1024" unicode=""/><glyph d="M512 181.333c-8.533 0-17.067 2.134-23.467 8.534L147.2 531.2c-12.8 12.8-12.8 32 0 44.8 12.8 12.8 32 12.8 44.8 0l320-317.867 317.867 320c12.8 12.8 32 12.8 44.8 0 12.8-12.8 12.8-32 0-44.8L533.333 192c-4.266-8.533-12.8-10.667-21.333-10.667z" glyph-name="arrow-down" horiz-adv-x="1024" unicode=""/><glyph d="M874.667 654.933H672v70.4C672 765.867 637.867 800 597.333 800H426.667C386.133 800 352 765.867 352 725.333v-70.4H149.333c-17.066 0-32-14.933-32-32s14.934-32 32-32h53.334V42.667C202.667 2.133 236.8-32 277.333-32h469.334c40.533 0 74.666 34.133 74.666 74.667v548.266h53.334c17.066 0 32 14.934 32 32s-14.934 32-32 32zM416 725.333c0 6.4 4.267 10.667 10.667 10.667h170.666c6.4 0 10.667-4.267 10.667-10.667v-70.4H416v70.4zM757.333 42.667c0-6.4-4.266-10.667-10.666-10.667H277.333c-6.4 0-10.666 4.267-10.666 10.667v544h490.666v-544zM426.667 160c17.066 0 32 14.933 32 32v213.333c0 17.067-14.934 32-32 32s-32-14.933-32-32V192c0-17.067 14.933-32 32-32zm170.666 0c17.067 0 32 14.933 32 32v213.333c0 17.067-14.933 32-32 32s-32-14.933-32-32V192c0-17.067 14.934-32 32-32z" glyph-name="ashbin" horiz-adv-x="1024" unicode=""/><glyph d="M320 10.667c-8.533 0-17.067 4.266-23.467 10.666-12.8 12.8-10.666 34.134 2.134 44.8L654.933 384 298.667 701.867c-12.8 10.666-14.934 32-2.134 44.8 10.667 12.8 32 14.933 44.8 2.133l384-341.333c6.4-6.4 10.667-14.934 10.667-23.467s-4.267-17.067-10.667-23.467l-384-341.333c-6.4-6.4-12.8-8.533-21.333-8.533z" glyph-name="arrow-right" horiz-adv-x="1024" unicode=""/><glyph d="M512 59.733c-281.6 0-437.333 302.934-443.733 315.734-4.267 8.533-4.267 19.2 0 29.866 6.4 12.8 164.266 315.734 443.733 315.734 281.6 0 437.333-305.067 443.733-317.867 4.267-8.533 4.267-19.2 0-29.867-6.4-10.666-162.133-313.6-443.733-313.6zM132.267 390.4C166.4 332.8 302.933 123.733 512 123.733S857.6 332.8 891.733 390.4C857.6 448 721.067 657.067 512 657.067S166.4 448 132.267 390.4zM512 245.333c-76.8 0-138.667 61.867-138.667 138.667S435.2 522.667 512 522.667 650.667 460.8 650.667 384 588.8 245.333 512 245.333zm0 213.334c-40.533 0-74.667-34.134-74.667-74.667s34.134-74.667 74.667-74.667 74.667 34.134 74.667 74.667-34.134 74.667-74.667 74.667z" glyph-name="browse" horiz-adv-x="1024" unicode=""/><glyph d="M896 32H128c-17.067 0-32-14.933-32-32s14.933-32 32-32h768c17.067 0 32 14.933 32 32s-14.933 32-32 32zM488.533 168.533c6.4-6.4 14.934-8.533 23.467-8.533s17.067 2.133 23.467 8.533L748.8 381.867c12.8 12.8 12.8 32 0 44.8-12.8 12.8-32 12.8-44.8 0L546.133 268.8v456.533c0 17.067-14.933 32-32 32S480 742.4 480 725.333V268.8L322.133 426.667c-12.8 12.8-32 12.8-44.8 0-12.8-12.8-12.8-32 0-44.8l211.2-213.334z" glyph-name="bottom" horiz-adv-x="1024" unicode=""/><glyph d="M853.333 650.667h-608l93.867 93.866c12.8 12.8 12.8 34.134 0 46.934-12.8 12.8-34.133 12.8-46.933 0L147.2 646.4c-12.8-12.8-12.8-34.133 0-46.933L292.267 454.4c6.4-6.4 14.933-10.667 23.466-10.667S332.8 448 339.2 454.4c12.8 12.8 12.8 34.133 0 46.933l-83.2 83.2h597.333c6.4 0 10.667-4.266 10.667-10.666V147.2c0-6.4-4.267-10.667-10.667-10.667H170.667c-17.067 0-32-14.933-32-32s14.933-32 32-32h682.666c40.534 0 74.667 34.134 74.667 74.667V576c0 40.533-34.133 74.667-74.667 74.667z" glyph-name="back" horiz-adv-x="1024" unicode=""/><glyph d="m904.533 373.333-51.2 337.067C844.8 761.6 797.867 800 746.667 800H204.8C145.067 800 96 753.067 96 693.333V435.2c0-57.6 49.067-106.667 108.8-106.667h91.733L422.4 46.933c2.133-2.133 2.133-4.266 4.267-6.4 14.933-23.466 38.4-36.266 64-36.266 12.8 0 25.6 4.266 38.4 10.666 57.6 34.134 87.466 72.534 87.466 117.334V249.6H800c32 0 59.733 12.8 81.067 36.267 19.2 25.6 29.866 55.466 23.466 87.466zM288 394.667h-83.2c-25.6 0-44.8 19.2-44.8 42.666v256C160 716.8 179.2 736 204.8 736H288V394.667zm544-66.134C823.467 320 810.667 313.6 797.867 313.6H584.533c-17.066 0-32-14.933-32-32V132.267c0-25.6-29.866-49.067-55.466-64-4.267-2.134-10.667-2.134-14.934 4.266L352 362.667V736h394.667c21.333 0 40.533-14.933 42.666-36.267l53.334-337.066C844.8 352 840.533 339.2 832 328.533z" glyph-name="bad" horiz-adv-x="1024" unicode=""/><glyph d="M842.667 32c-8.534 0-14.934 2.133-21.334 8.533L480 349.867c-6.4 6.4-10.667 14.933-10.667 23.466 0 8.534 4.267 17.067 10.667 23.467l341.333 309.333c12.8 12.8 34.134 10.667 44.8-2.133 12.8-12.8 10.667-34.133-2.133-44.8L548.267 373.333 864 87.467c12.8-10.667 14.933-32 2.133-44.8C859.733 36.267 851.2 32 842.667 32zM512 32c-8.533 0-14.933 2.133-21.333 8.533L149.333 349.867c-6.4 6.4-10.666 14.933-10.666 23.466 0 8.534 4.266 17.067 10.666 23.467l341.334 309.333c12.8 12.8 34.133 10.667 44.8-2.133 12.8-12.8 10.666-34.133-2.134-44.8L217.6 373.333 533.333 87.467c12.8-12.8 14.934-32 2.134-44.8C529.067 36.267 520.533 32 512 32z" glyph-name="arrow-double-left" horiz-adv-x="1024" unicode=""/><glyph d="M512 821.333C270.933 821.333 74.667 625.067 74.667 384S270.933-53.333 512-53.333 949.333 142.933 949.333 384 753.067 821.333 512 821.333zm0-810.666C307.2 10.667 138.667 179.2 138.667 384S307.2 757.333 512 757.333 885.333 588.8 885.333 384 716.8 10.667 512 10.667zM682.667 416H405.333L524.8 544c12.8 12.8 10.667 34.133-2.133 44.8s-34.134 10.667-44.8-2.133L307.2 405.333c-10.667-12.8-10.667-32 0-44.8L477.867 179.2c6.4-6.4 14.933-10.667 23.466-10.667 8.534 0 14.934 2.134 21.334 8.534 12.8 12.8 12.8 32 2.133 44.8l-119.467 128h277.334c17.066 0 32 14.933 32 32S699.733 416 682.667 416z" glyph-name="arrow-left-circle" horiz-adv-x="1024" unicode=""/><glyph d="M544 373.333c0 8.534-4.267 17.067-10.667 23.467L192 706.133c-12.8 12.8-34.133 10.667-44.8-2.133-12.8-12.8-10.667-34.133 2.133-44.8l315.734-285.867L149.333 87.467c-12.8-12.8-14.933-32-2.133-44.8C153.6 36.267 162.133 32 170.667 32 179.2 32 185.6 34.133 192 40.533l341.333 309.334c6.4 6.4 10.667 14.933 10.667 23.466zM864 396.8 522.667 706.133c-12.8 12.8-34.134 10.667-44.8-2.133-12.8-12.8-10.667-34.133 2.133-44.8l315.733-285.867L480 87.467c-12.8-12.8-14.933-32-2.133-44.8C484.267 36.267 492.8 32 501.333 32c8.534 0 14.934 2.133 21.334 8.533L864 349.867c6.4 6.4 10.667 14.933 10.667 23.466 0 8.534-4.267 17.067-10.667 23.467z" glyph-name="arrow-double-right" horiz-adv-x="1024" unicode=""/><glyph d="M853.333 800H170.667C130.133 800 96 765.867 96 725.333V42.667C96 2.133 130.133-32 170.667-32h682.666C893.867-32 928 2.133 928 42.667v682.666C928 765.867 893.867 800 853.333 800zM864 42.667c0-6.4-4.267-10.667-10.667-10.667H170.667C164.267 32 160 36.267 160 42.667v682.666c0 6.4 4.267 10.667 10.667 10.667h682.666c6.4 0 10.667-4.267 10.667-10.667V42.667zM544 597.333c-19.2 12.8-42.667 12.8-61.867 0l-185.6-145.066L294.4 448c-6.4-6.4-17.067-19.2-17.067-38.4 0-8.533 2.134-14.933 4.267-21.333 8.533-17.067 25.6-29.867 44.8-29.867h59.733V185.6c0-27.733 21.334-51.2 51.2-51.2h147.2c29.867 0 53.334 21.333 53.334 51.2v172.8h57.6c21.333 0 42.666 14.933 46.933 36.267 4.267 19.2 0 38.4-14.933 51.2L544 597.333zm29.867-172.8V202.667h-121.6v221.866h-85.334L512 539.733l145.067-115.2h-83.2z" glyph-name="caps-lock" horiz-adv-x="1024" unicode=""/><glyph d="M846.933 657.067h-140.8l-59.733 89.6c-6.4 10.666-17.067 17.066-29.867 17.066H407.467c-12.8 0-23.467-6.4-29.867-17.066l-59.733-89.6h-140.8c-57.6 0-106.667-46.934-106.667-106.667V123.733c0-57.6 46.933-106.666 106.667-106.666h672c57.6 0 106.666 46.933 106.666 106.666V550.4c-2.133 59.733-49.066 106.667-108.8 106.667zm34.134-533.334c0-19.2-14.934-34.133-34.134-34.133H177.067c-19.2 0-34.134 14.933-34.134 34.133V550.4c0 19.2 14.934 34.133 34.134 34.133h160c12.8 0 23.466 6.4 29.866 17.067l59.734 87.467h170.666l59.734-89.6c6.4-10.667 17.066-17.067 29.866-17.067h160c19.2 0 34.134-14.933 34.134-34.133V123.733zM512 531.2c-96 0-174.933-78.933-174.933-174.933 0-96 78.933-174.934 174.933-174.934 96 0 174.933 78.934 174.933 174.934S608 531.2 512 531.2zm0-279.467c-57.6 0-104.533 46.934-104.533 104.534S454.4 460.8 512 460.8s104.533-46.933 104.533-104.533S569.6 251.733 512 251.733z" glyph-name="camera" horiz-adv-x="1024" unicode=""/><glyph d="M149.333 96h128c29.867 0 53.334 23.467 53.334 53.333v213.334c0 29.866-23.467 53.333-53.334 53.333h-128C119.467 416 96 392.533 96 362.667V149.333C96 119.467 119.467 96 149.333 96zM160 352h106.667V160H160v192zM448 96h128c29.867 0 53.333 23.467 53.333 53.333v597.334C629.333 776.533 605.867 800 576 800H448c-29.867 0-53.333-23.467-53.333-53.333V149.333C394.667 119.467 418.133 96 448 96zm10.667 640h106.666V160H458.667v576zm416-149.333h-128c-29.867 0-53.334-23.467-53.334-53.334v-384C693.333 119.467 716.8 96 746.667 96h128C904.533 96 928 119.467 928 149.333v384c0 29.867-23.467 53.334-53.333 53.334zM864 160H757.333v362.667H864V160zm32-117.333H128c-17.067 0-32-14.934-32-32s14.933-32 32-32h768c17.067 0 32 14.933 32 32s-14.933 32-32 32z" glyph-name="chart-bar" horiz-adv-x="1024" unicode=""/><glyph d="M874.667 428.8C864 439.467 844.8 441.6 832 428.8L488.533 87.467c-74.666-74.667-198.4-74.667-275.2 0-36.266 36.266-57.6 85.333-57.6 136.533s19.2 100.267 57.6 136.533L556.8 704c46.933 46.933 121.6 46.933 168.533 0 23.467-23.467 34.134-53.333 34.134-83.2 0-32-12.8-61.867-34.134-83.2L384 192c-17.067-17.067-44.8-17.067-64 0-8.533 8.533-12.8 19.2-12.8 32s4.267 23.467 12.8 32l317.867 315.733c10.666 10.667 12.8 29.867 0 42.667-10.667 12.8-29.867 12.8-42.667 0L277.333 298.667c-19.2-19.2-29.866-46.934-29.866-74.667s10.666-53.333 29.866-74.667c40.534-40.533 106.667-40.533 147.2 0L768 492.8c34.133 34.133 53.333 78.933 53.333 125.867s-19.2 93.866-53.333 125.866a178.987 178.987 0 0 1-253.867 0L172.8 403.2C125.867 356.267 98.133 292.267 98.133 224s25.6-132.267 74.667-179.2C221.867-4.267 288-29.867 352-29.867S482.133-4.267 531.2 44.8l343.467 341.333c10.666 12.8 10.666 32 0 42.667z" glyph-name="attachment" horiz-adv-x="1024" unicode=""/><glyph d="M322.133 599.467c-12.8 12.8-32 12.8-44.8 0l-192-192c-12.8-12.8-12.8-32 0-44.8l192-192c6.4-6.4 14.934-8.534 23.467-8.534s17.067 2.134 23.467 8.534c12.8 12.8 12.8 32 0 44.8L151.467 384 320 552.533c12.8 12.8 12.8 34.134 2.133 46.934zm618.667-192-192 192c-12.8 12.8-32 12.8-44.8 0-12.8-12.8-12.8-32 0-44.8l168.533-168.534L704 217.6c-12.8-12.8-12.8-32 0-44.8 6.4-6.4 14.933-8.533 23.467-8.533s17.066 2.133 23.466 8.533l192 192c8.534 8.533 8.534 29.867-2.133 42.667zM622.933 819.2c-17.066 4.267-34.133-6.4-38.4-23.467L366.933-6.4c-4.266-17.067 6.4-34.133 23.467-38.4 2.133 0 6.4-2.133 8.533-2.133 14.934 0 27.734 8.533 29.867 23.466L644.267 780.8c4.266 17.067-4.267 34.133-21.334 38.4z" glyph-name="code" horiz-adv-x="1024" unicode=""/><glyph d="M556.8 384 832 659.2c12.8 12.8 12.8 32 0 44.8-12.8 12.8-32 12.8-44.8 0L512 428.8 236.8 706.133c-12.8 12.8-32 12.8-44.8 0-12.8-12.8-12.8-32 0-44.8L467.2 384 189.867 108.8c-12.8-12.8-12.8-32 0-44.8 6.4-6.4 14.933-8.533 23.466-8.533S230.4 57.6 236.8 64L512 339.2 787.2 64c6.4-6.4 14.933-8.533 23.467-8.533S827.733 57.6 834.133 64c12.8 12.8 12.8 32 0 44.8L556.8 384z" glyph-name="close" horiz-adv-x="1024" unicode=""/><glyph d="M853.333 800H170.667C130.133 800 96 765.867 96 725.333V42.667C96 2.133 130.133-32 170.667-32h682.666C893.867-32 928 2.133 928 42.667v682.666C928 765.867 893.867 800 853.333 800zM864 42.667c0-6.4-4.267-10.667-10.667-10.667H170.667C164.267 32 160 36.267 160 42.667v682.666c0 6.4 4.267 10.667 10.667 10.667h682.666c6.4 0 10.667-4.267 10.667-10.667V42.667zM704 514.133 460.8 279.467 343.467 405.333c-12.8 12.8-32 12.8-44.8 2.134-12.8-12.8-12.8-32-2.134-44.8l140.8-149.334c6.4-6.4 14.934-10.666 23.467-10.666s17.067 4.266 21.333 8.533l264.534 256c12.8 12.8 12.8 32 0 44.8C736 524.8 716.8 526.933 704 514.133z" glyph-name="check-item" horiz-adv-x="1024" unicode=""/><glyph d="M853.333 746.667H714.667v42.666c0 17.067-14.934 32-32 32s-32-14.933-32-32v-42.666H373.333v42.666c0 17.067-14.933 32-32 32s-32-14.933-32-32v-42.666H170.667C130.133 746.667 96 712.533 96 672V53.333c0-40.533 34.133-74.666 74.667-74.666h682.666C893.867-21.333 928 12.8 928 53.333V672c0 40.533-34.133 74.667-74.667 74.667zm-682.666-64h138.666v-64c0-17.067 14.934-32 32-32s32 14.933 32 32v64h277.334v-64c0-17.067 14.933-32 32-32s32 14.933 32 32v64h138.666c6.4 0 10.667-4.267 10.667-10.667V477.867C859.733 480 857.6 480 853.333 480H170.667c-4.267 0-6.4 0-10.667-2.133V672c0 6.4 4.267 10.667 10.667 10.667zm682.666-640H170.667c-6.4 0-10.667 4.266-10.667 10.666v364.8C164.267 416 166.4 416 170.667 416h682.666c4.267 0 6.4 0 10.667 2.133v-364.8c0-6.4-4.267-10.666-10.667-10.666zM384 288h-85.333c-17.067 0-32-14.933-32-32s14.933-32 32-32H384c17.067 0 32 14.933 32 32s-14.933 32-32 32zm341.333 0h-192c-17.066 0-32-14.933-32-32s14.934-32 32-32h192c17.067 0 32 14.933 32 32s-14.933 32-32 32z" glyph-name="calendar" horiz-adv-x="1024" unicode=""/><glyph d="M853.333 757.333H170.667C130.133 757.333 96 723.2 96 682.667v-512C96 130.133 130.133 96 170.667 96h151.466V-21.333c0-12.8 8.534-25.6 19.2-29.867 4.267-2.133 8.534-2.133 12.8-2.133 8.534 0 17.067 4.266 23.467 10.666L514.133 96h339.2C893.867 96 928 130.133 928 170.667v512c0 40.533-34.133 74.666-74.667 74.666zM864 170.667c0-6.4-4.267-10.667-10.667-10.667h-352c-8.533 0-17.066-4.267-23.466-10.667l-89.6-93.866V128c0 17.067-14.934 32-32 32h-185.6c-6.4 0-10.667 4.267-10.667 10.667v512c0 6.4 4.267 10.666 10.667 10.666h682.666c6.4 0 10.667-4.266 10.667-10.666v-512zM512 405.333H298.667c-17.067 0-32-14.933-32-32s14.933-32 32-32H512c17.067 0 32 14.934 32 32s-14.933 32-32 32zm160 149.334H298.667c-17.067 0-32-14.934-32-32s14.933-32 32-32H672c17.067 0 32 14.933 32 32s-14.933 32-32 32z" glyph-name="comment" horiz-adv-x="1024" unicode=""/><glyph d="M874.667 778.667H149.333c-40.533 0-74.666-34.134-74.666-74.667V64c0-40.533 34.133-74.667 74.666-74.667h725.334c40.533 0 74.666 34.134 74.666 74.667v640c0 40.533-34.133 74.667-74.666 74.667zm-725.334-64h725.334c6.4 0 10.666-4.267 10.666-10.667V416H138.667v288c0 6.4 4.266 10.667 10.666 10.667zM874.667 53.333H149.333c-6.4 0-10.666 4.267-10.666 10.667v288h746.666V64c0-6.4-4.266-10.667-10.666-10.667z" glyph-name="column-vertical" horiz-adv-x="1024" unicode=""/><glyph d="M874.667 778.667H149.333c-40.533 0-74.666-34.134-74.666-74.667V64c0-40.533 34.133-74.667 74.666-74.667h725.334c40.533 0 74.666 34.134 74.666 74.667v640c0 40.533-34.133 74.667-74.666 74.667zM138.667 64v640c0 6.4 4.266 10.667 10.666 10.667H480V53.333H149.333c-6.4 0-10.666 4.267-10.666 10.667zm746.666 0c0-6.4-4.266-10.667-10.666-10.667H544v661.334h330.667c6.4 0 10.666-4.267 10.666-10.667V64z" glyph-name="column-horizontal" horiz-adv-x="1024" unicode=""/><glyph d="M874.667 394.667c-17.067 0-32-14.934-32-32V64c0-6.4-4.267-10.667-10.667-10.667H192c-6.4 0-10.667 4.267-10.667 10.667v640c0 6.4 4.267 10.667 10.667 10.667h469.333c17.067 0 32 14.933 32 32s-14.933 32-32 32H192c-40.533 0-74.667-34.134-74.667-74.667V64c0-40.533 34.134-74.667 74.667-74.667h640c40.533 0 74.667 34.134 74.667 74.667v298.667c0 17.066-14.934 32-32 32zm66.133 332.8c-12.8 12.8-32 12.8-44.8 0l-390.4-384-106.667 106.666c-12.8 12.8-32 12.8-44.8 0-12.8-12.8-12.8-32 0-44.8l130.134-128c6.4-6.4 14.933-8.533 23.466-8.533s17.067 2.133 23.467 8.533l411.733 405.334c8.534 10.666 10.667 32-2.133 44.8z" glyph-name="complete" horiz-adv-x="1024" unicode=""/><glyph d="M887.467 253.867c-17.067 6.4-34.134 0-42.667-17.067C780.8 85.333 622.933-6.4 458.667 14.933c-164.267 21.334-294.4 149.334-315.734 313.6C119.467 490.667 209.067 650.667 358.4 716.8c17.067 6.4 23.467 25.6 17.067 42.667-6.4 17.066-25.6 23.466-42.667 17.066C155.733 697.6 51.2 509.867 78.933 317.867c27.734-192 179.2-343.467 371.2-369.067 19.2-2.133 36.267-4.267 55.467-4.267 170.667 0 330.667 102.4 398.933 264.534 6.4 17.066-2.133 36.266-17.066 44.8zm-72.534 433.066c-87.466 87.467-202.666 134.4-324.266 134.4-17.067 0-32-14.933-32-32V362.667c0-17.067 14.933-32 32-32h426.666c17.067 0 32 14.933 32 32 0 121.6-46.933 236.8-134.4 324.266zM522.667 394.667V755.2c93.866-6.4 179.2-46.933 247.466-115.2 66.134-66.133 106.667-153.6 115.2-247.467H522.667z" glyph-name="chart-pie" horiz-adv-x="1024" unicode=""/><glyph d="M512 821.333C270.933 821.333 74.667 625.067 74.667 384S270.933-53.333 512-53.333 949.333 142.933 949.333 384 753.067 821.333 512 821.333zm0-810.666C307.2 10.667 138.667 179.2 138.667 384S307.2 757.333 512 757.333 885.333 588.8 885.333 384 716.8 10.667 512 10.667zm0 288c-81.067 0-151.467-36.267-211.2-106.667-10.667-12.8-8.533-34.133 4.267-44.8 12.8-10.667 34.133-8.533 44.8 4.267C396.8 209.067 450.133 236.8 512 236.8s115.2-27.733 162.133-85.333c6.4-8.534 14.934-10.667 25.6-10.667 6.4 0 14.934 2.133 21.334 6.4 12.8 10.667 14.933 32 4.266 44.8C663.467 262.4 593.067 298.667 512 298.667zM362.667 384c23.466 0 42.666 19.2 42.666 42.667v64c0 23.466-19.2 42.666-42.666 42.666S320 514.133 320 490.667v-64C320 403.2 339.2 384 362.667 384zm298.666 0C684.8 384 704 403.2 704 426.667v64c0 23.466-19.2 42.666-42.667 42.666s-42.666-19.2-42.666-42.666v-64c0-23.467 19.2-42.667 42.666-42.667z" glyph-name="cry" horiz-adv-x="1024" unicode=""/><glyph d="M864 456.533v12.8c0 194.134-157.867 352-352 352s-352-157.866-352-352v-12.8c-36.267-4.266-64-36.266-64-72.533V213.333c0-40.533 34.133-74.666 74.667-74.666H256c40.533 0 74.667 34.133 74.667 74.666V384c0 40.533-34.134 74.667-74.667 74.667h-32v10.666c0 157.867 130.133 288 288 288s288-130.133 288-288v-10.666h-32c-40.533 0-74.667-34.134-74.667-74.667V213.333c0-40.533 34.134-74.666 74.667-74.666h21.333C772.267 89.6 729.6 40.533 610.133 32c-12.8 19.2-32 32-55.466 32-36.267 0-64-27.733-64-64s27.733-64 64-64c23.466 0 44.8 12.8 55.466 34.133C776.533-19.2 836.267 61.867 855.467 140.8 896 142.933 928 174.933 928 215.467v170.666c0 36.267-27.733 66.134-64 70.4zM266.667 384V213.333c0-6.4-4.267-10.666-10.667-10.666h-85.333c-6.4 0-10.667 4.266-10.667 10.666V384c0 6.4 4.267 10.667 10.667 10.667H256c6.4 0 10.667-4.267 10.667-10.667zM864 213.333c0-6.4-4.267-10.666-10.667-10.666H768c-6.4 0-10.667 4.266-10.667 10.666V384c0 6.4 4.267 10.667 10.667 10.667h85.333c6.4 0 10.667-4.267 10.667-10.667V213.333z" glyph-name="customer-service" horiz-adv-x="1024" unicode=""/><glyph d="M874.667 693.333H360.533c-21.333 0-40.533-8.533-55.466-23.466L87.467 435.2c-25.6-27.733-25.6-72.533 0-100.267l217.6-234.666C320 85.333 339.2 76.8 360.533 76.8h514.134c40.533 0 74.666 34.133 74.666 74.667v467.2c0 40.533-34.133 74.666-74.666 74.666zm10.666-544c0-6.4-4.266-10.666-10.666-10.666H360.533c-2.133 0-6.4 2.133-8.533 4.266L134.4 377.6c-4.267 4.267-4.267 10.667 0 14.933L352 627.2c2.133 2.133 4.267 4.267 8.533 4.267h514.134c6.4 0 10.666-4.267 10.666-10.667V149.333zM684.8 492.8c-12.8 12.8-32 12.8-44.8 0l-64-64-61.867 61.867c-12.8 12.8-32 12.8-44.8 0-12.8-12.8-12.8-32 0-44.8L531.2 384l-61.867-61.867c-12.8-12.8-12.8-32 0-44.8 6.4-6.4 14.934-8.533 23.467-8.533s17.067 2.133 23.467 8.533l61.866 61.867L640 277.333c6.4-6.4 14.933-8.533 23.467-8.533s17.066 2.133 23.466 8.533c12.8 12.8 12.8 32 0 44.8L620.8 384l61.867 61.867c12.8 12.8 12.8 34.133 2.133 46.933z" glyph-name="delete" horiz-adv-x="1024" unicode=""/><glyph d="M898.133 384c-12.8 12.8-32 12.8-44.8 2.133L544 96v650.667c0 17.066-14.933 32-32 32s-32-14.934-32-32V96L170.667 386.133c-12.8 12.8-34.134 10.667-44.8-2.133-12.8-12.8-10.667-34.133 2.133-44.8L490.667-2.133c2.133-2.134 6.4-4.267 8.533-6.4 4.267-2.134 6.4-2.134 10.667-2.134s8.533 0 10.666 2.134c4.267 2.133 6.4 4.266 8.534 6.4L891.733 339.2c17.067 12.8 19.2 32 6.4 44.8z" glyph-name="direction-down" horiz-adv-x="1024" unicode=""/><glyph d="M853.333 672H800v53.333C800 765.867 765.867 800 725.333 800H170.667C130.133 800 96 765.867 96 725.333V170.667C96 130.133 130.133 96 170.667 96H224V42.667C224 2.133 258.133-32 298.667-32h554.666C893.867-32 928 2.133 928 42.667v554.666C928 637.867 893.867 672 853.333 672zM160 170.667v554.666c0 6.4 4.267 10.667 10.667 10.667h554.666c6.4 0 10.667-4.267 10.667-10.667V170.667c0-6.4-4.267-10.667-10.667-10.667H170.667c-6.4 0-10.667 4.267-10.667 10.667zm704-128c0-6.4-4.267-10.667-10.667-10.667H298.667C292.267 32 288 36.267 288 42.667V96h437.333C765.867 96 800 130.133 800 170.667V608h53.333c6.4 0 10.667-4.267 10.667-10.667V42.667zM576 480h-96v96c0 17.067-14.933 32-32 32s-32-14.933-32-32v-96h-96c-17.067 0-32-14.933-32-32s14.933-32 32-32h96v-96c0-17.067 14.933-32 32-32s32 14.933 32 32v96h96c17.067 0 32 14.933 32 32s-14.933 32-32 32z" glyph-name="copy" horiz-adv-x="1024" unicode=""/><glyph d="M917.333 693.333h-96v96c0 17.067-14.933 32-32 32s-32-14.933-32-32v-96h-480c-40.533 0-74.666-34.133-74.666-74.666v-480h-96c-17.067 0-32-14.934-32-32s14.933-32 32-32h96v-96c0-17.067 14.933-32 32-32s32 14.933 32 32v96h480c40.533 0 74.666 34.133 74.666 74.666v480h96c17.067 0 32 14.934 32 32s-14.933 32-32 32zm-160-544c0-6.4-4.266-10.666-10.666-10.666h-480v480c0 6.4 4.266 10.666 10.666 10.666h480v-480z" glyph-name="cut" horiz-adv-x="1024" unicode=""/><glyph d="M874.667 32h-704C164.267 32 160 36.267 160 42.667v704c0 17.066-14.933 32-32 32s-32-14.934-32-32v-704C96 2.133 130.133-32 170.667-32h704c17.066 0 32 14.933 32 32s-14.934 32-32 32zM437.333 426.667v-320c0-17.067 14.934-32 32-32s32 14.933 32 32v320c0 17.066-14.933 32-32 32s-32-14.934-32-32zm-138.666-352c17.066 0 32 14.933 32 32v256c0 17.066-14.934 32-32 32s-32-14.934-32-32v-256c0-17.067 14.933-32 32-32zm341.333 256c-17.067 0-32-14.934-32-32v-192c0-17.067 14.933-32 32-32s32 14.933 32 32v192c0 17.066-14.933 32-32 32zM810.667 544c-17.067 0-32-14.933-32-32V106.667c0-17.067 14.933-32 32-32s32 14.933 32 32V512c0 17.067-14.934 32-32 32zm-488.534-55.467 147.2 147.2 147.2-147.2c6.4-6.4 14.934-8.533 23.467-8.533h2.133c8.534 0 17.067 6.4 23.467 12.8l170.667 234.667c10.666 14.933 6.4 34.133-6.4 44.8-14.934 10.666-34.134 6.4-44.8-6.4l-149.334-204.8-145.066 145.066c-12.8 12.8-32 12.8-44.8 0L275.2 535.467c-12.8-12.8-12.8-32 0-44.8 12.8-12.8 34.133-12.8 46.933-2.134z" glyph-name="data-view" horiz-adv-x="1024" unicode=""/><glyph d="M512 821.333C270.933 821.333 74.667 625.067 74.667 384S270.933-53.333 512-53.333 949.333 142.933 949.333 384 753.067 821.333 512 821.333zm0-810.666C307.2 10.667 138.667 179.2 138.667 384S307.2 757.333 512 757.333 885.333 588.8 885.333 384 716.8 10.667 512 10.667zM672 396.8 544 277.333v277.334c0 17.066-14.933 32-32 32s-32-14.934-32-32V277.333L352 396.8c-12.8 12.8-34.133 10.667-44.8-2.133-12.8-12.8-10.667-34.134 2.133-44.8L490.667 179.2c6.4-6.4 14.933-8.533 21.333-8.533s14.933 2.133 21.333 8.533l181.334 170.667c12.8 12.8 12.8 32 2.133 44.8-12.8 12.8-32 14.933-44.8 2.133z" glyph-name="direction-down-circle" horiz-adv-x="1024" unicode=""/><glyph d="M904.533 373.333c2.134 4.267 2.134 6.4 2.134 10.667s0 8.533-2.134 10.667c-2.133 4.266-4.266 6.4-6.4 8.533L556.8 765.867c-12.8 12.8-32 12.8-44.8 2.133-12.8-12.8-12.8-32-2.133-44.8L800 413.867H149.333c-17.066 0-32-14.934-32-32s14.934-32 32-32H800l-290.133-307.2c-12.8-12.8-10.667-34.134 2.133-44.8 6.4-6.4 14.933-8.534 21.333-8.534C541.867-10.667 550.4-6.4 556.8 0l341.333 362.667c2.134 2.133 4.267 6.4 6.4 10.666z" glyph-name="direction-right" horiz-adv-x="1024" unicode=""/><glyph d="M896 428.8 533.333 770.133c-2.133 2.134-6.4 4.267-8.533 6.4-4.267 2.134-6.4 2.134-10.667 2.134s-8.533 0-10.666-2.134c-4.267-2.133-6.4-4.266-8.534-6.4L132.267 428.8c-12.8-12.8-12.8-32-2.134-44.8 12.8-12.8 32-12.8 44.8-2.133L484.267 672V21.333c0-17.066 14.933-32 32-32s32 14.934 32 32V672l305.066-290.133c6.4-6.4 14.934-8.534 21.334-8.534 8.533 0 17.066 4.267 23.466 10.667 12.8 12.8 10.667 32-2.133 44.8z" glyph-name="direction-up" horiz-adv-x="1024" unicode=""/><glyph d="M874.667 800h-281.6c-19.2 0-38.4-8.533-53.334-21.333L134.4 373.333c-29.867-29.866-29.867-76.8 0-104.533L394.667 8.533C409.6-6.4 426.667-12.8 448-12.8s38.4 8.533 53.333 21.333l405.334 405.334C921.6 428.8 928 445.867 928 467.2v279.467C928 776.533 904.533 800 874.667 800zM864 465.067c0-2.134-2.133-6.4-2.133-8.534L456.533 51.2c-2.133-2.133-6.4-2.133-8.533-2.133s-4.267 0-8.533 2.133L181.333 311.467c-4.266 4.266-4.266 10.666 0 14.933l405.334 405.333c2.133 2.134 4.266 2.134 8.533 2.134h270.933v-268.8zM704 480c53.333 0 96 42.667 96 96s-42.667 96-96 96-96-42.667-96-96 42.667-96 96-96zm0 128c17.067 0 32-14.933 32-32s-14.933-32-32-32-32 14.933-32 32 14.933 32 32 32z" glyph-name="discount" horiz-adv-x="1024" unicode=""/><glyph d="M874.667 416H224l290.133 309.333c12.8 12.8 10.667 34.134-2.133 44.8S480 780.8 467.2 768L125.867 405.333c-2.134-2.133-4.267-6.4-6.4-8.533-2.134-4.267-2.134-6.4-2.134-10.667s0-8.533 2.134-10.666c2.133-4.267 4.266-6.4 6.4-8.534L467.2 4.267c6.4-6.4 14.933-10.667 23.467-10.667C499.2-6.4 505.6-4.267 512 2.133c12.8 12.8 12.8 32 2.133 44.8L224 352h650.667c17.066 0 32 14.933 32 32s-14.934 32-32 32z" glyph-name="direction-left" horiz-adv-x="1024" unicode=""/><glyph d="M896 224c-17.067 0-32-14.933-32-32V64c0-6.4-4.267-10.667-10.667-10.667H170.667C164.267 53.333 160 57.6 160 64v128c0 17.067-14.933 32-32 32s-32-14.933-32-32V64c0-40.533 34.133-74.667 74.667-74.667h682.666C893.867-10.667 928 23.467 928 64v128c0 17.067-14.933 32-32 32zm-407.467-55.467c6.4-6.4 14.934-8.533 23.467-8.533s17.067 2.133 23.467 8.533L748.8 381.867c12.8 12.8 12.8 32 0 44.8-12.8 12.8-32 12.8-44.8 0L546.133 268.8v456.533c0 17.067-14.933 32-32 32S480 742.4 480 725.333V268.8L322.133 426.667c-12.8 12.8-32 12.8-44.8 0-12.8-12.8-12.8-32 0-44.8l211.2-213.334z" glyph-name="download" horiz-adv-x="1024" unicode=""/><glyph d="M840.533 778.667H183.467c-59.734 0-108.8-49.067-108.8-108.8V290.133c0-59.733 49.066-108.8 108.8-108.8H416v-115.2h-74.667c-17.066 0-32-14.933-32-32s14.934-32 32-32h341.334c17.066 0 32 14.934 32 32s-14.934 32-32 32H608v115.2h232.533c59.734 0 108.8 49.067 108.8 108.8v379.734c0 59.733-49.066 108.8-108.8 108.8zM544 66.133h-64v115.2h64v-115.2zm341.333 224c0-25.6-19.2-44.8-44.8-44.8H183.467c-25.6 0-44.8 19.2-44.8 44.8v379.734c0 25.6 19.2 44.8 44.8 44.8h657.066c25.6 0 44.8-19.2 44.8-44.8V290.133z" glyph-name="electronics" horiz-adv-x="1024" unicode=""/><glyph d="M298.667 704a64 64 0 1 1 128 0 64 64 0 1 1-128 0Zm298.666 0a64 64 0 1 1 128 0 64 64 0 1 1-128 0ZM298.667 384a64 64 0 1 1 128 0 64 64 0 1 1-128 0Zm298.666 0a64 64 0 1 1 128 0 64 64 0 1 1-128 0ZM298.667 64a64 64 0 1 1 128 0 64 64 0 1 1-128 0Zm298.666 0a64 64 0 1 1 128 0 64 64 0 1 1-128 0Z" glyph-name="drag" horiz-adv-x="1024" unicode=""/><glyph d="M128 384a64 64 0 1 1 128 0 64 64 0 1 1-128 0Zm320 0a64 64 0 1 1 128 0 64 64 0 1 1-128 0Zm320 0a64 64 0 1 1 128 0 64 64 0 1 1-128 0Z" glyph-name="elipsis" horiz-adv-x="1024" unicode=""/><glyph d="M582.4 32H170.667C164.267 32 160 36.267 160 42.667v682.666c0 6.4 4.267 10.667 10.667 10.667H480V576c0-40.533 34.133-74.667 74.667-74.667h160v-38.4c0-17.066 14.933-32 32-32s32 14.934 32 32v134.4c0 8.534-4.267 17.067-8.534 23.467L599.467 791.467c-6.4 6.4-14.934 8.533-23.467 8.533H170.667C130.133 800 96 765.867 96 725.333V42.667C96 2.133 130.133-32 170.667-32H582.4c17.067 0 32 14.933 32 32s-14.933 32-32 32zm132.267 550.4v-17.067h-160c-6.4 0-10.667 4.267-10.667 10.667v160h19.2l151.467-153.6zm151.466-356.267L759.467 332.8c-12.8 12.8-32 12.8-44.8 0s-12.8-32 0-44.8l51.2-51.2H512c-17.067 0-32-14.933-32-32s14.933-34.133 32-34.133h253.867l-51.2-51.2c-12.8-12.8-12.8-32 0-44.8 6.4-6.4 14.933-8.534 23.466-8.534s17.067 2.134 23.467 8.534l106.667 106.666c8.533 10.667 8.533 32-2.134 44.8z" glyph-name="export" horiz-adv-x="1024" unicode=""/><glyph d="M789.333 821.333H234.667c-40.534 0-74.667-34.133-74.667-74.666V21.333c0-40.533 34.133-74.666 74.667-74.666h554.666C829.867-53.333 864-19.2 864 21.333v725.334c0 40.533-34.133 74.666-74.667 74.666zm-138.666-64V460.8L576 531.2c-6.4 6.4-14.933 8.533-21.333 8.533-8.534 0-17.067-2.133-21.334-8.533l-74.666-72.533v298.666h192zM800 21.333c0-6.4-4.267-10.666-10.667-10.666H234.667c-6.4 0-10.667 4.266-10.667 10.666v725.334c0 6.4 4.267 10.666 10.667 10.666h160V435.2c0-14.933 6.4-27.733 14.933-36.267 21.333-21.333 53.333-21.333 74.667 0l70.4 68.267 70.4-68.267C635.733 388.267 648.533 384 661.333 384c29.867 0 53.334 23.467 53.334 53.333v320h74.666c6.4 0 10.667-4.266 10.667-10.666V21.333z" glyph-name="explain" horiz-adv-x="1024" unicode=""/><glyph d="M853.333 394.667c-17.066 0-32-14.934-32-32v-320c0-6.4-4.266-10.667-10.666-10.667h-640C164.267 32 160 36.267 160 42.667v640c0 6.4 4.267 10.666 10.667 10.666h320c17.066 0 32 14.934 32 32s-14.934 32-32 32h-320C130.133 757.333 96 723.2 96 682.667v-640C96 2.133 130.133-32 170.667-32h640c40.533 0 74.666 34.133 74.666 74.667v320c0 17.066-14.933 32-32 32zm-448 17.066-32-125.866c-2.133-10.667 0-23.467 8.534-29.867 6.4-6.4 14.933-8.533 23.466-8.533h8.534l125.866 32c6.4 2.133 10.667 4.266 14.934 8.533l300.8 300.8c38.4 38.4 38.4 102.4 0 140.8-38.4 38.4-102.4 38.4-140.8 0l-300.8-302.933c-4.267-4.267-6.4-8.534-8.534-14.934zm59.734-23.466 296.533 294.4c12.8 12.8 36.267 12.8 49.067 0 12.8-12.8 12.8-36.267 0-49.067l-294.4-296.533L450.133 320l14.934 68.267z" glyph-name="edit" horiz-adv-x="1024" unicode=""/><glyph d="M955.733 403.2C949.333 416 793.6 721.067 512 721.067c-23.467 0-46.933-2.134-70.4-6.4-17.067-4.267-29.867-19.2-25.6-36.267 4.267-17.067 19.2-29.867 36.267-25.6 19.2 4.267 38.4 4.267 57.6 4.267 209.066 0 345.6-209.067 379.733-266.667-10.667-19.2-32-53.333-64-91.733-10.667-12.8-8.533-34.134 4.267-44.8 6.4-4.267 12.8-6.4 21.333-6.4s19.2 4.266 25.6 10.666c51.2 61.867 78.933 115.2 78.933 117.334 6.4 8.533 6.4 19.2 0 27.733zM215.467 770.133c-12.8 12.8-32 12.8-44.8 0-12.8-12.8-12.8-32 0-44.8L262.4 633.6C138.667 541.867 72.533 411.733 68.267 405.333c-4.267-8.533-4.267-19.2 0-29.866C74.667 362.667 230.4 59.733 512 59.733c83.2 0 164.267 27.734 241.067 81.067l96-96c6.4-6.4 14.933-8.533 23.466-8.533S889.6 38.4 896 44.8c12.8 12.8 12.8 32 0 44.8L215.467 770.133zm243.2-334.933L563.2 330.667c-12.8-12.8-32-21.334-51.2-21.334-40.533 0-74.667 34.134-74.667 74.667 0 19.2 8.534 38.4 21.334 51.2zM512 123.733c-209.067 0-345.6 209.067-379.733 266.667C153.6 426.667 213.333 520.533 307.2 586.667l104.533-104.534c-25.6-25.6-38.4-59.733-38.4-96 0-76.8 61.867-138.666 138.667-138.666 36.267 0 70.4 14.933 96 38.4l98.133-98.134c-61.866-42.666-128-64-194.133-64z" glyph-name="eye-close" horiz-adv-x="1024" unicode=""/><glyph d="M874.667 714.667H149.333c-40.533 0-74.666-34.134-74.666-74.667V128c0-40.533 34.133-74.667 74.666-74.667h725.334c40.533 0 74.666 34.134 74.666 74.667v512c0 40.533-34.133 74.667-74.666 74.667zm-725.334-64h725.334c6.4 0 10.666-4.267 10.666-10.667v-25.6L512 379.733 138.667 614.4V640c0 6.4 4.266 10.667 10.666 10.667zm725.334-533.334H149.333c-6.4 0-10.666 4.267-10.666 10.667v411.733l356.266-224c4.267-4.266 10.667-4.266 17.067-4.266s12.8 2.133 17.067 4.266l356.266 224V128c0-6.4-4.266-10.667-10.666-10.667z" glyph-name="email" horiz-adv-x="1024" unicode=""/><glyph d="M512 821.333C270.933 821.333 74.667 625.067 74.667 384S270.933-53.333 512-53.333 949.333 142.933 949.333 384 753.067 821.333 512 821.333zm0-810.666C307.2 10.667 138.667 179.2 138.667 384S307.2 757.333 512 757.333 885.333 588.8 885.333 384 716.8 10.667 512 10.667zm145.067 524.8c-12.8 12.8-32 12.8-44.8 0l-102.4-102.4-102.4 102.4c-12.8 12.8-32 12.8-44.8 0-12.8-12.8-12.8-32 0-44.8l102.4-102.4-102.4-102.4c-12.8-12.8-12.8-32 0-44.8 6.4-6.4 14.933-8.534 23.466-8.534s17.067 2.134 23.467 8.534l102.4 102.4 102.4-102.4c6.4-6.4 14.933-8.534 23.467-8.534s17.066 2.134 23.466 8.534c12.8 12.8 12.8 32 0 44.8L554.667 386.133l102.4 102.4c12.8 12.8 12.8 34.134 0 46.934z" glyph-name="error" horiz-adv-x="1024" unicode=""/><glyph d="M934.4 539.733c-8.533 10.667-21.333 19.2-34.133 21.334L665.6 595.2 561.067 808.533c-6.4 8.534-14.934 17.067-25.6 23.467-12.8 6.4-27.734 6.4-40.534 2.133-12.8-4.266-23.466-14.933-29.866-27.733L360.533 593.067l-234.666-34.134C115.2 556.8 104.533 552.533 96 544c-21.333-21.333-19.2-55.467 0-74.667l170.667-166.4-40.534-234.666c-2.133-10.667 0-23.467 6.4-34.134 12.8-25.6 46.934-36.266 72.534-21.333l211.2 110.933L727.467 12.8c8.533-4.267 17.066-6.4 25.6-6.4h8.533c14.933 2.133 25.6 10.667 34.133 21.333 8.534 10.667 10.667 25.6 8.534 40.534l-40.534 234.666 170.667 166.4c8.533 8.534 14.933 19.2 14.933 29.867-2.133 14.933-6.4 27.733-14.933 40.533zM710.4 345.6c-12.8-12.8-19.2-29.867-14.933-46.933l38.4-217.6L512 196.267l-221.867-115.2 38.4 217.6c2.134 17.066-2.133 34.133-14.933 46.933L155.733 499.2l219.734 32c17.066 2.133 32 12.8 40.533 29.867l96 198.4 98.133-198.4c8.534-14.934 23.467-27.734 40.534-29.867l219.733-32-160-153.6z" glyph-name="favorite" horiz-adv-x="1024" unicode=""/><glyph d="M832 821.333H192c-17.067 0-32-14.933-32-32V23.467c0-12.8 4.267-23.467 12.8-34.134 8.533-10.666 21.333-17.066 36.267-19.2h6.4c12.8 0 23.466 4.267 34.133 12.8l264.533 213.334L778.667-17.067C787.2-25.6 800-29.867 812.8-29.867c29.867 0 53.333 23.467 53.333 53.334v765.866c-2.133 17.067-17.066 32-34.133 32zM800 44.8 531.2 262.4c-10.667 8.533-27.733 8.533-40.533 0L224 44.8v712.533h576V44.8zM341.333 554.667h320c17.067 0 32 14.933 32 32s-14.933 32-32 32h-320c-17.066 0-32-14.934-32-32s14.934-32 32-32zm0-170.667h213.334c17.066 0 32 14.933 32 32s-14.934 32-32 32H341.333c-17.066 0-32-14.933-32-32s14.934-32 32-32z" glyph-name="file-common" horiz-adv-x="1024" unicode=""/><glyph d="M842.667 610.133 654.933 797.867C640 812.8 622.933 819.2 601.6 819.2H234.667c-40.534 2.133-74.667-32-74.667-72.533V21.333c0-40.533 34.133-74.666 74.667-74.666h554.666C829.867-53.333 864-19.2 864 21.333v537.6c0 19.2-8.533 38.4-21.333 51.2zm-44.8-44.8c-2.134-2.133-4.267 0-8.534 0H618.667c-6.4 0-10.667 4.267-10.667 10.667v170.667c0 2.133 0 6.4-2.133 8.533 0 0 2.133 0 2.133-2.133l189.867-187.734zm-8.534-554.666H234.667c-6.4 0-10.667 4.266-10.667 10.666v725.334c0 6.4 4.267 10.666 10.667 10.666h311.466c-2.133-4.266-2.133-6.4-2.133-10.666V576c0-40.533 34.133-74.667 74.667-74.667h170.666c4.267 0 6.4 0 10.667 2.134V21.333c0-6.4-4.267-10.666-10.667-10.666zM640 309.333H384c-17.067 0-32-14.933-32-32s14.933-32 32-32h256c17.067 0 32 14.934 32 32s-14.933 32-32 32z" glyph-name="file-delete" horiz-adv-x="1024" unicode=""/><glyph d="M842.667 610.133 654.933 797.867C640 812.8 622.933 819.2 601.6 819.2H234.667c-40.534 2.133-74.667-32-74.667-72.533V21.333c0-40.533 34.133-74.666 74.667-74.666h554.666C829.867-53.333 864-19.2 864 21.333v537.6c0 19.2-8.533 38.4-21.333 51.2zm-44.8-44.8h-179.2c-6.4 0-10.667 4.267-10.667 10.667v179.2l189.867-189.867zm-8.534-554.666H234.667c-6.4 0-10.667 4.266-10.667 10.666v725.334c0 6.4 4.267 10.666 10.667 10.666H544V576c0-40.533 34.133-74.667 74.667-74.667H800v-480c0-6.4-4.267-10.666-10.667-10.666zM618.667 309.333H544V384c0 17.067-14.933 32-32 32s-32-14.933-32-32v-74.667h-74.667c-17.066 0-32-14.933-32-32s14.934-32 32-32H480v-74.666c0-17.067 14.933-32 32-32s32 14.933 32 32v74.666h74.667c17.066 0 32 14.934 32 32s-14.934 32-32 32z" glyph-name="file-add" horiz-adv-x="1024" unicode=""/><glyph d="M853.333 800H170.667C130.133 800 96 765.867 96 725.333V42.667C96 2.133 130.133-32 170.667-32h682.666C893.867-32 928 2.133 928 42.667v682.666C928 765.867 893.867 800 853.333 800zM864 416H714.667v106.667H864V416zm-213.333 0H373.333v320h277.334V416zm-341.334 0H160v106.667h149.333V416zM160 352h149.333V245.333H160V352zm213.333 0h277.334V32H373.333v320zm341.334 0H864V245.333H714.667V352zM864 725.333V586.667H714.667V736h138.666c6.4 0 10.667-4.267 10.667-10.667zM170.667 736h138.666V586.667H160v138.666c0 6.4 4.267 10.667 10.667 10.667zM160 42.667v138.666h149.333V32H170.667C164.267 32 160 36.267 160 42.667zM853.333 32H714.667v149.333H864V42.667c0-6.4-4.267-10.667-10.667-10.667z" glyph-name="film" horiz-adv-x="1024" unicode=""/><glyph d="M859.733 642.133c-44.8 44.8-102.4 70.4-166.4 70.4-61.866 0-121.6-25.6-166.4-70.4L512 625.067l-17.067 17.066c-44.8 44.8-102.4 70.4-166.4 70.4-61.866 0-121.6-25.6-166.4-70.4-91.733-91.733-91.733-243.2 0-337.066L486.4-25.6c6.4-6.4 14.933-8.533 23.467-8.533s17.066 4.266 23.466 8.533L857.6 305.067c44.8 44.8 68.267 104.533 68.267 168.533s-21.334 123.733-66.134 168.533zM814.933 352 512 42.667 209.067 352c-66.134 68.267-66.134 179.2 0 247.467 32 32 74.666 51.2 119.466 51.2S416 633.6 448 599.467l38.4-40.534c12.8-12.8 34.133-12.8 44.8 0l38.4 40.534c32 32 74.667 51.2 119.467 51.2s87.466-17.067 119.466-51.2c32-32 49.067-76.8 49.067-123.734S844.8 384 814.933 352z" glyph-name="fabulous" horiz-adv-x="1024" unicode=""/><glyph d="M842.667 610.133 654.933 797.867C640 812.8 622.933 819.2 601.6 819.2H234.667c-40.534 2.133-74.667-32-74.667-72.533V21.333c0-40.533 34.133-74.666 74.667-74.666h554.666C829.867-53.333 864-19.2 864 21.333v537.6c0 19.2-8.533 38.4-21.333 51.2zm-44.8-44.8c-2.134-2.133-4.267 0-8.534 0H618.667c-6.4 0-10.667 4.267-10.667 10.667v170.667c0 2.133 0 6.4-2.133 8.533 0 0 2.133 0 2.133-2.133l189.867-187.734zm-8.534-554.666H234.667c-6.4 0-10.667 4.266-10.667 10.666v725.334c0 6.4 4.267 10.666 10.667 10.666h311.466c-2.133-4.266-2.133-6.4-2.133-10.666V576c0-40.533 34.133-74.667 74.667-74.667h170.666c4.267 0 6.4 0 10.667 2.134V21.333c0-6.4-4.267-10.666-10.667-10.666zM640 202.667H341.333c-17.066 0-32-14.934-32-32s14.934-32 32-32H640c17.067 0 32 14.933 32 32s-14.933 32-32 32zm0 170.666H341.333c-17.066 0-32-14.933-32-32s14.934-32 32-32H640c17.067 0 32 14.934 32 32s-14.933 32-32 32zM341.333 480h85.334c17.066 0 32 14.933 32 32s-14.934 32-32 32h-85.334c-17.066 0-32-14.933-32-32s14.934-32 32-32z" glyph-name="file" horiz-adv-x="1024" unicode=""/><glyph d="M853.333 629.333h-339.2c-4.266 0-6.4 2.134-8.533 4.267l-38.4 66.133C454.4 721.067 428.8 736 403.2 736H170.667C130.133 736 96 701.867 96 661.333V106.667C96 66.133 130.133 32 170.667 32h682.666C893.867 32 928 66.133 928 106.667v448c0 40.533-34.133 74.666-74.667 74.666zM170.667 672H403.2c4.267 0 6.4-2.133 8.533-4.267l38.4-66.133c12.8-21.333 38.4-36.267 64-36.267h339.2c6.4 0 10.667-4.266 10.667-10.666V480H160v181.333c0 6.4 4.267 10.667 10.667 10.667zM853.333 96H170.667c-6.4 0-10.667 4.267-10.667 10.667V416h704V106.667c0-6.4-4.267-10.667-10.667-10.667z" glyph-name="folder-close" horiz-adv-x="1024" unicode=""/><glyph d="M872.533 761.6c-12.8 10.667-29.866 17.067-49.066 17.067H198.4c-40.533 0-74.667-34.134-74.667-74.667 0-17.067 6.4-34.133 17.067-49.067L396.8 352V100.267c0-12.8 6.4-23.467 17.067-27.734L576-8.533c4.267-2.134 8.533-4.267 14.933-4.267S601.6-10.667 608-8.533c8.533 6.4 14.933 17.066 14.933 27.733v334.933l256 302.934C891.733 672 898.133 691.2 896 710.4c2.133 19.2-6.4 38.4-23.467 51.2zm-38.4-64L569.6 386.133c-4.267-6.4-8.533-12.8-8.533-21.333V72.533L462.933 121.6v243.2c0 8.533-2.133 14.933-8.533 21.333L189.867 697.6c0 2.133-2.134 4.267-2.134 6.4 0 6.4 4.267 10.667 10.667 10.667h625.067c2.133 0 4.266 0 6.4-2.134 2.133-2.133 4.266-6.4 4.266-6.4 2.134-2.133 2.134-6.4 0-8.533z" glyph-name="filter" horiz-adv-x="1024" unicode=""/></font>
</defs>
</svg>
